<?xml version="1.0" standalone="no"?><!DOCTYPE svg PUBLIC "-//W3C//DTD SVG 1.1//EN" "http://www.w3.org/Graphics/SVG/1.1/DTD/svg11.dtd"><svg xmlns:xlink="http://www.w3.org/1999/xlink" version="1.1" class="highcharts-root" style="font-family: &quot;Helvetica Neue&quot;, Helvetica, Arial, sans-serif; font-size: 12px;" xmlns="http://www.w3.org/2000/svg" width="1918" height="950" viewBox="0 0 1918 950"><desc>Created with Highcharts 10.1.0</desc><defs><clipPath id="highcharts-ek40b8v-1495-"><rect x="0" y="0" width="1855" height="849" fill="none"></rect></clipPath><clipPath id="highcharts-ek40b8v-1978-"><rect x="0" y="0" width="1855" height="849" fill="none"></rect></clipPath><clipPath id="highcharts-ek40b8v-2466-"><rect x="0" y="40" width="1855" height="849" fill="none"></rect></clipPath></defs><rect fill="#ffffff" class="highcharts-background" x="0" y="0" width="1918" height="950" rx="0" ry="0"></rect><rect fill="none" class="highcharts-plot-background" x="0" y="40" width="1855" height="849"></rect><g class="highcharts-grid highcharts-xaxis-grid" data-z-index="1"><path fill="none" stroke="#EDF3F6" stroke-width="1" stroke-dasharray="none" data-z-index="1" class="highcharts-grid-line" d="M 129.5 40 L 129.5 889" opacity="1"></path><path fill="none" stroke="#EDF3F6" stroke-width="1" stroke-dasharray="none" data-z-index="1" class="highcharts-grid-line" d="M 243.5 40 L 243.5 889" opacity="1"></path><path fill="none" stroke="#EDF3F6" stroke-width="1" stroke-dasharray="none" data-z-index="1" class="highcharts-grid-line" d="M 358.5 40 L 358.5 889" opacity="1"></path><path fill="none" stroke="#EDF3F6" stroke-width="1" stroke-dasharray="none" data-z-index="1" class="highcharts-grid-line" d="M 472.5 40 L 472.5 889" opacity="1"></path><path fill="none" stroke="#EDF3F6" stroke-width="1" stroke-dasharray="none" data-z-index="1" class="highcharts-grid-line" d="M 587.5 40 L 587.5 889" opacity="1"></path><path fill="none" stroke="#EDF3F6" stroke-width="1" stroke-dasharray="none" data-z-index="1" class="highcharts-grid-line" d="M 701.5 40 L 701.5 889" opacity="1"></path><path fill="none" stroke="#EDF3F6" stroke-width="1" stroke-dasharray="none" data-z-index="1" class="highcharts-grid-line" d="M 816.5 40 L 816.5 889" opacity="1"></path><path fill="none" stroke="#EDF3F6" stroke-width="1" stroke-dasharray="none" data-z-index="1" class="highcharts-grid-line" d="M 930.5 40 L 930.5 889" opacity="1"></path><path fill="none" stroke="#EDF3F6" stroke-width="1" stroke-dasharray="none" data-z-index="1" class="highcharts-grid-line" d="M 1045.5 40 L 1045.5 889" opacity="1"></path><path fill="none" stroke="#EDF3F6" stroke-width="1" stroke-dasharray="none" data-z-index="1" class="highcharts-grid-line" d="M 1159.5 40 L 1159.5 889" opacity="1"></path><path fill="none" stroke="#EDF3F6" stroke-width="1" stroke-dasharray="none" data-z-index="1" class="highcharts-grid-line" d="M 1274.5 40 L 1274.5 889" opacity="1"></path><path fill="none" stroke="#EDF3F6" stroke-width="1" stroke-dasharray="none" data-z-index="1" class="highcharts-grid-line" d="M 1388.5 40 L 1388.5 889" opacity="1"></path><path fill="none" stroke="#EDF3F6" stroke-width="1" stroke-dasharray="none" data-z-index="1" class="highcharts-grid-line" d="M 1503.5 40 L 1503.5 889" opacity="1"></path><path fill="none" stroke="#EDF3F6" stroke-width="1" stroke-dasharray="none" data-z-index="1" class="highcharts-grid-line" d="M 1617.5 40 L 1617.5 889" opacity="1"></path><path fill="none" stroke="#EDF3F6" stroke-width="1" stroke-dasharray="none" data-z-index="1" class="highcharts-grid-line" d="M 1732.5 40 L 1732.5 889" opacity="1"></path><path fill="none" stroke="#EDF3F6" stroke-width="1" stroke-dasharray="none" data-z-index="1" class="highcharts-grid-line" d="M 1846.5 40 L 1846.5 889" opacity="1"></path></g><g class="highcharts-grid highcharts-yaxis-grid" data-z-index="1"><path fill="none" stroke="#E7E7E7" stroke-width="1" stroke-dasharray="none" data-z-index="1" class="highcharts-grid-line" d="M 0 889.5 L 1855 889.5" opacity="1"></path><path fill="none" stroke="#E7E7E7" stroke-width="1" stroke-dasharray="none" data-z-index="1" class="highcharts-grid-line" d="M 0 836.5 L 1855 836.5" opacity="1"></path><path fill="none" stroke="#E7E7E7" stroke-width="1" stroke-dasharray="none" data-z-index="1" class="highcharts-grid-line" d="M 0 783.5 L 1855 783.5" opacity="1"></path><path fill="none" stroke="#E7E7E7" stroke-width="1" stroke-dasharray="none" data-z-index="1" class="highcharts-grid-line" d="M 0 730.5 L 1855 730.5" opacity="1"></path><path fill="none" stroke="#E7E7E7" stroke-width="1" stroke-dasharray="none" data-z-index="1" class="highcharts-grid-line" d="M 0 677.5 L 1855 677.5" opacity="1"></path><path fill="none" stroke="#E7E7E7" stroke-width="1" stroke-dasharray="none" data-z-index="1" class="highcharts-grid-line" d="M 0 624.5 L 1855 624.5" opacity="1"></path><path fill="none" stroke="#E7E7E7" stroke-width="1" stroke-dasharray="none" data-z-index="1" class="highcharts-grid-line" d="M 0 571.5 L 1855 571.5" opacity="1"></path><path fill="none" stroke="#E7E7E7" stroke-width="1" stroke-dasharray="none" data-z-index="1" class="highcharts-grid-line" d="M 0 518.5 L 1855 518.5" opacity="1"></path><path fill="none" stroke="#E7E7E7" stroke-width="1" stroke-dasharray="none" data-z-index="1" class="highcharts-grid-line" d="M 0 465.5 L 1855 465.5" opacity="1"></path><path fill="none" stroke="#E7E7E7" stroke-width="1" stroke-dasharray="none" data-z-index="1" class="highcharts-grid-line" d="M 0 411.5 L 1855 411.5" opacity="1"></path><path fill="none" stroke="#E7E7E7" stroke-width="1" stroke-dasharray="none" data-z-index="1" class="highcharts-grid-line" d="M 0 358.5 L 1855 358.5" opacity="1"></path><path fill="none" stroke="#E7E7E7" stroke-width="1" stroke-dasharray="none" data-z-index="1" class="highcharts-grid-line" d="M 0 305.5 L 1855 305.5" opacity="1"></path><path fill="none" stroke="#E7E7E7" stroke-width="1" stroke-dasharray="none" data-z-index="1" class="highcharts-grid-line" d="M 0 252.5 L 1855 252.5" opacity="1"></path><path fill="none" stroke="#E7E7E7" stroke-width="1" stroke-dasharray="none" data-z-index="1" class="highcharts-grid-line" d="M 0 199.5 L 1855 199.5" opacity="1"></path><path fill="none" stroke="#E7E7E7" stroke-width="1" stroke-dasharray="none" data-z-index="1" class="highcharts-grid-line" d="M 0 146.5 L 1855 146.5" opacity="1"></path><path fill="none" stroke="#E7E7E7" stroke-width="1" stroke-dasharray="none" data-z-index="1" class="highcharts-grid-line" d="M 0 93.5 L 1855 93.5" opacity="1"></path><path fill="none" stroke="#E7E7E7" stroke-width="1" stroke-dasharray="none" data-z-index="1" class="highcharts-grid-line" d="M 0 39.5 L 1855 39.5" opacity="1"></path></g><g class="highcharts-grid highcharts-yaxis-grid" data-z-index="1"></g><g class="highcharts-grid highcharts-yaxis-grid" data-z-index="1"></g><rect fill="none" class="highcharts-plot-border" data-z-index="1" x="0" y="40" width="1855" height="849"></rect><g class="highcharts-axis highcharts-xaxis" data-z-index="2"><path fill="none" class="highcharts-axis-line" stroke="#E6E6E6" stroke-width="1" data-z-index="7" d="M 0 889.5 L 1855 889.5"></path></g><g class="highcharts-axis highcharts-yaxis" data-z-index="2"><path fill="none" class="highcharts-axis-line" data-z-index="7" d="M 1888 40 L 1888 889"></path></g><g class="highcharts-axis highcharts-yaxis" data-z-index="2"><path fill="none" class="highcharts-axis-line" stroke="#E6E6E6" stroke-width="1" data-z-index="7" d="M -1.5 40 L -1.5 889"></path></g><g class="highcharts-series-group" data-z-index="3"><g class="highcharts-series highcharts-series-0 highcharts-line-series" data-z-index="90" opacity="1" transform="translate(0,40) scale(1 1)" clip-path="url(#highcharts-ek40b8v-1978-)"><path fill="none" d="M 0 693.6860624999999 L 3.8168724279835 686.4695624999999 L 7.6337448559671 688.4859375 L 11.450617283951 682.489875 L 15.267489711934 679.2 L 19.084362139918 681.3755625 L 22.901234567901 687.90225 L 26.718106995885 687.8491875 L 30.534979423868 693.8983125 L 34.351851851852 691.935 L 38.168724279835 689.918625 L 41.985596707819 686.8940625 L 45.802469135802 685.3021875 L 49.619341563786 688.432875 L 53.43621399177 685.4083125 L 57.253086419753 691.1390625 L 61.069958847737 702.5475 L 64.88683127572 693.8983125 L 68.703703703704 691.616625 L 72.520576131687 697.984125 L 76.337448559671 704.0863125 L 80.154320987654 708.8619375000001 L 83.971193415638 708.8619375000001 L 87.788065843621 707.1639375 L 91.604938271605 698.8861875 L 95.421810699588 702.3883125 L 99.238683127572 701.274 L 103.05555555556 706.4210625000001 L 106.87242798354 705.0945 L 110.68930041152 700.0005 L 114.50617283951 694.69425 L 118.32304526749 687.796125 L 122.13991769547 691.1390625 L 125.95679012346 709.4456250000001 L 129.77366255144 749.0833125 L 133.59053497942 778.639125 L 137.40740740741 793.708875 L 141.22427983539 778.214625 L 145.04115226337 773.120625 L 148.85802469136 781.186125 L 152.67489711934 789.8353125 L 156.49176954733 764.630625 L 160.30864197531 770.6266875 L 164.12551440329 767.9735625 L 167.94238683128 769.40625 L 171.75925925926 753.805875 L 175.57613168724 749.5078125 L 179.39300411523 760.91625 L 183.20987654321 749.0833125 L 187.02674897119 749.6139375 L 190.84362139918 746.1648749999999 L 194.66049382716 741.3361875 L 198.47736625514 735.6054375 L 202.29423868313 744.3076875 L 206.11111111111 745.0505625 L 209.92798353909 743.08725 L 213.74485596708 750.7813125 L 217.56172839506 760.385625 L 221.37860082305 759.112125 L 225.19547325103 764.0469375 L 229.01234567901 758.36925 L 232.829218107 753.5405625 L 236.64609053498 756.0875625 L 240.46296296296 768.55725 L 244.27983539095 762.4550624999999 L 248.09670781893 768.451125 L 251.91358024691 778.0554375 L 255.7304526749 776.941125 L 259.54732510288 767.70825 L 263.36419753086 757.52025 L 267.18106995885 758.6345625 L 270.99794238683 752.6915625 L 274.81481481481 741.8668125 L 278.6316872428 740.646375 L 282.44855967078 743.405625 L 286.26543209877 741.4423125 L 290.08230452675 751.8425625 L 293.89917695473 749.0833125 L 297.71604938272 742.1851875 L 301.5329218107 743.1933750000001 L 305.34979423868 743.4586875 L 309.16666666667 733.217625 L 312.98353909465 728.65425 L 316.80041152263 734.703375 L 320.61728395062 741.38925 L 324.4341563786 750.622125 L 328.25102880658 756.67125 L 332.06790123457 758.4223125 L 335.88477366255 739.2136875 L 339.70164609054 704.03325 L 343.51851851852 639.3500625 L 347.3353909465 662.0608125 L 351.15226337449 695.9146875 L 354.96913580247 698.09025 L 358.78600823045 734.703375 L 362.60288065844 747.33225 L 366.41975308642 744.8383125 L 370.2366255144 737.781 L 374.05349794239 736.8789375 L 377.87037037037 739.9035 L 381.68724279835 733.9605 L 385.50411522634 730.882875 L 389.32098765432 731.0420625 L 393.1378600823 724.9929375 L 396.95473251029 735.02175 L 400.77160493827 747.5445 L 404.58847736626 748.711875 L 408.40534979424 749.87925 L 412.22222222222 745.8465 L 416.03909465021 738.3646875 L 419.85596707819 731.6788125 L 423.67283950617 734.385 L 427.48971193416 732.9523125000001 L 431.30658436214 735.02175 L 435.12345679012 733.8013125 L 438.94032921811 739.5851250000001 L 442.75720164609 743.4586875 L 446.57407407407 745.528125 L 450.39094650206 741.495375 L 454.20781893004 739.69125 L 458.02469135802 740.54025 L 461.84156378601 740.0626875 L 465.65843621399 742.768875 L 469.47530864198 748.9771875 L 473.29218106996 754.12425 L 477.10905349794 751.9486875 L 480.92592592593 749.2955625 L 484.74279835391 759.21825 L 488.55967078189 767.1245625 L 492.37654320988 773.8104375 L 496.19341563786 768.3980625 L 500.01028806584 772.1655 L 503.82716049383 770.5205625 L 507.64403292181 759.324375 L 511.46090534979 751.8425625 L 515.27777777778 746.2179375000001 L 519.09465020576 744.0954375 L 522.91152263374 755.8222499999999 L 526.72839506173 751.4180625 L 530.54526748971 752.4793125 L 534.3621399177 753.2221875 L 538.17901234568 754.761 L 541.99588477366 751.4180625 L 545.81275720165 750.8874375 L 549.62962962963 747.2791875 L 553.44650205761 740.858625 L 557.2633744856 748.7649375 L 561.08024691358 756.67125 L 564.89711934156 755.8222499999999 L 568.71399176955 754.3365 L 572.53086419753 755.928375 L 576.34773662551 755.39775 L 580.1646090535 752.532375 L 583.98148148148 745.2628125 L 587.79835390947 754.867125 L 591.61522633745 745.315875 L 595.43209876543 735.0748125 L 599.24897119342 736.5074999999999 L 603.0658436214 744.1485 L 606.88271604938 737.99325 L 610.69958847737 740.646375 L 614.51646090535 730.9359375 L 618.33333333333 719.6336249999999 L 622.15020576132 725.0990625 L 625.9670781893 722.9765625 L 629.78395061728 711.462 L 633.60082304527 720.8540625 L 637.41769547325 741.283125 L 641.23456790123 740.6994375 L 645.05144032922 741.7606875 L 648.8683127572 738.2055 L 652.68518518519 743.93625 L 656.50205761317 742.132125 L 660.31893004115 744.9444375 L 664.13580246914 736.613625 L 667.95267489712 737.14425 L 671.7695473251 747.3853125 L 675.58641975309 755.39775 L 679.40329218107 757.6794375 L 683.22016460905 767.0715 L 687.03703703704 766.1694375 L 690.85390946502 767.3368125 L 694.670781893 768.345 L 698.48765432099 773.757375 L 702.30452674897 773.5981875 L 706.12139917695 778.214625 L 709.93827160494 763.357125 L 713.75514403292 772.483875 L 717.57201646091 789.463875 L 721.38888888889 785.0596875 L 725.20576131687 781.3453125 L 729.02263374486 783.8923125 L 732.83950617284 760.0672500000001 L 736.65637860082 749.985375 L 740.47325102881 759.64275 L 744.29012345679 746.6424375 L 748.10699588477 740.0626875 L 751.92386831276 731.6788125 L 755.74074074074 718.9438125 L 759.55761316872 733.5890625 L 763.37448559671 718.5193125000001 L 767.19135802469 713.16 L 771.00823045267 702.33525 L 774.82510288066 687.5308125 L 778.64197530864 706.261875 L 782.45884773663 712.4171249999999 L 786.27572016461 695.0656875 L 790.09259259259 676.546875 L 793.90946502058 703.4495625 L 797.72633744856 673.2570000000001 L 801.54320987654 685.3552500000001 L 805.36008230453 675.485625 L 809.17695473251 669.542625 L 812.99382716049 706.7925 L 816.81069958848 696.922875 L 820.62757201646 703.6618125 L 824.44444444444 709.4986875 L 828.26131687243 697.984125 L 832.07818930041 698.4616875 L 835.8950617284 709.7109375 L 839.71193415638 709.1803125 L 843.52880658436 704.67 L 847.34567901235 724.6745625 L 851.16255144033 736.613625 L 854.97942386831 745.8465 L 858.7962962963 743.724 L 862.61316872428 745.63425 L 866.43004115226 733.642125 L 870.24691358025 709.3925624999999 L 874.06378600823 704.1924375 L 877.88065843621 714.6988125 L 881.6975308642 706.474125 L 885.51440329218 705.625125 L 889.33127572016 695.224875 L 893.14814814815 687.4246875 L 896.96502057613 704.563875 L 900.78189300412 706.3149375 L 904.5987654321 683.4449999999999 L 908.41563786008 671.1875625 L 912.23251028807 654.79125 L 916.04938271605 684.294 L 919.86625514403 712.09875 L 923.68312757202 692.14725 L 927.5 688.8043125 L 931.31687242798 686.947125 L 935.13374485597 681.4816875 L 938.95061728395 694.0575 L 942.76748971193 694.5350625 L 946.58436213992 687.6369374999999 L 950.4012345679 676.44075 L 954.21810699588 673.6284375 L 958.03497942387 657.126 L 961.85185185185 659.2485 L 965.66872427984 650.652375 L 969.48559670782 637.38675 L 973.3024691358 652.4034375 L 977.11934156379 616.5862500000001 L 980.93621399177 625.50075 L 984.75308641975 585.59775 L 988.56995884774 574.3485000000001 L 992.38683127572 588.3039375000001 L 996.2037037037 618.4434375 L 1000.0205761317 593.23875 L 1003.8374485597 574.4015625 L 1007.6543209877 555.03375 L 1011.4711934156 585.17325 L 1015.2880658436 573.2341875 L 1019.1049382716 549.196875 L 1022.9218106996 527.6004375 L 1026.7386831276 483.187125 L 1030.5555555556 497.514 L 1034.3724279835 531.8985 L 1038.1893004115 544.84575 L 1042.0061728395 525.1065 L 1045.8230452675 488.5995 L 1049.6399176955 523.1431875000001 L 1053.4567901235 495.4445625 L 1057.2736625514 467.58675 L 1061.0905349794 470.7174375 L 1064.9074074074 456.7089375 L 1068.7242798354 454.215 L 1072.5411522634 476.182875 L 1076.3580246914 515.1838124999999 L 1080.1748971193 537.3639375 L 1083.9917695473 514.0164374999999 L 1087.8086419753 525.0534375 L 1091.6255144033 540.494625 L 1095.4423868313 521.1268125 L 1099.2592592593 499.4773125 L 1103.0761316872 500.3263125 L 1106.8930041152 509.3469375 L 1110.7098765432 473.95425 L 1114.5267489712 433.9981875 L 1118.3436213992 456.12525 L 1122.1604938272 415.691625 L 1125.9773662551 347.4001875 L 1129.7942386831 378.2825625 L 1133.6111111111 339.706125 L 1137.4279835391 362.1515625 L 1141.2448559671 308.6115 L 1145.0617283951 309.991125 L 1148.878600823 246.95287499999995 L 1152.695473251 173.24906250000004 L 1156.512345679 106.125 L 1160.329218107 190.6005 L 1164.146090535 236.340375 L 1167.962962963 314.97900000000004 L 1171.7798353909 489.1831875 L 1175.5967078189 560.1808125 L 1179.4135802469 612.34125 L 1183.2304526749 627.8355 L 1187.0473251029 611.49225 L 1190.8641975309 585.491625 L 1194.6810699588 577.7445 L 1198.4979423868 497.1425625 L 1202.3148148148 478.1461875 L 1206.1316872428 480.4809375 L 1209.9485596708 477.77475 L 1213.7654320988 474.3256875 L 1217.5823045267 440.41875 L 1221.3991769547 438.933 L 1225.2160493827 427.896 L 1229.0329218107 462.2274375 L 1232.8497942387 426.304125 L 1236.6666666667 404.5485 L 1240.4835390947 391.8665625 L 1244.3004115226 456.4966875 L 1248.1172839506 447.6883125 L 1251.9341563786 430.0715625 L 1255.7510288066 467.3745 L 1259.5679012346 424.6591875 L 1263.3847736626 416.9120625 L 1267.2016460905 402.6913125 L 1271.0185185185 364.114875 L 1274.8353909465 359.8168125 L 1278.6522633745 334.45293749999996 L 1282.4691358025 282.717 L 1286.2860082305 244.45893750000005 L 1290.1028806584 304.048125 L 1293.9197530864 342.677625 L 1297.7366255144 341.191875 L 1301.5534979424 377.7519375 L 1305.3703703704 428.745 L 1309.1872427984 354.5105625 L 1313.0041152263 316.46475 L 1316.8209876543 324.58331250000003 L 1320.6378600823 326.44050000000004 L 1324.4547325103 280.8598125 L 1328.2716049383 302.35012500000005 L 1332.0884773663 292.5335625 L 1335.9053497942 389.8501875 L 1339.7222222222 398.181 L 1343.5390946502 381.731625 L 1347.3559670782 337.1060625 L 1351.1728395062 359.8168125 L 1354.9897119342 391.389 L 1358.8065843621 377.2213125 L 1362.6234567901 361.780125 L 1366.4403292181 331.6936875 L 1370.2572016461 360.5596875 L 1374.0740740741 333.07331250000004 L 1377.8909465021 353.077875 L 1381.70781893 360.9841875 L 1385.524691358 336.62850000000003 L 1389.341563786 291.68456249999997 L 1393.158436214 277.78218749999996 L 1396.975308642 306.01143750000006 L 1400.79218107 337.583625 L 1404.6090534979 357.0045 L 1408.4259259259 326.758875 L 1412.2427983539 331.6936875 L 1416.0596707819 304.6318125 L 1419.8765432099 309.991125 L 1423.6934156379 319.75462500000003 L 1427.5102880658 303.9950625 L 1431.3271604938 289.88043749999997 L 1435.1440329218 328.0854375 L 1438.9609053498 339.81225 L 1442.7777777778 365.28225 L 1446.5946502058 421.634625 L 1450.4115226337 497.9915625 L 1454.2283950617 566.3360625 L 1458.0452674897 593.0264999999999 L 1461.8621399177 584.961 L 1465.6790123457 596.4225 L 1469.4958847737 532.5883125 L 1473.3127572016 529.0331249999999 L 1477.1296296296 533.4373125 L 1480.9465020576 598.9695 L 1484.7633744856 587.9325 L 1488.5802469136 609.7411875 L 1492.3971193416 601.7818125 L 1496.2139917695 627.9946875 L 1500.0308641975 652.4565 L 1503.8477366255 670.603875 L 1507.6646090535 669.9140625 L 1511.4814814815 645.5583750000001 L 1515.2983539095 605.337 L 1519.1152263374 588.463125 L 1522.9320987654 592.5489375 L 1526.7489711934 628.26 L 1530.5658436214 611.810625 L 1534.3827160494 593.0264999999999 L 1538.1995884774 600.349125 L 1542.0164609053 586.659 L 1545.8333333333 563.9482499999999 L 1549.6502057613 568.7769375 L 1553.4670781893 562.4094375 L 1557.2839506173 580.5037500000001 L 1561.1008230453 587.8794375 L 1564.9176954733 592.602 L 1568.7345679012 604.70025 L 1572.5514403292 582.7854375 L 1576.3683127572 598.3858124999999 L 1580.1851851852 574.8260625 L 1584.0020576132 560.4461249999999 L 1587.8189300412 544.42125 L 1591.6358024691 528.396375 L 1595.4526748971 505.5264375 L 1599.2695473251 521.92275 L 1603.0864197531 504.412125 L 1606.9032921811 485.1504375 L 1610.7201646091 493.269 L 1614.537037037 455.5415625 L 1618.353909465 484.14225 L 1622.170781893 477.574704375 L 1625.987654321 458.464245 L 1629.804526749 502.4488125 L 1633.621399177 578.7526875 L 1637.4382716049 608.0431874999999 L 1641.2551440329 563.5768125 L 1645.0720164609 545.376375 L 1648.8888888889 529.882125 L 1652.7057613169 509.8775625 L 1656.5226337449 565.115625 L 1660.3395061728 533.4898443750001 L 1664.1563786008 538.159875 L 1667.9732510288 556.625625 L 1671.7901234568 562.0910625 L 1675.6069958848 561.507375 L 1679.4238683128 554.571045 L 1683.2407407407 526.6155974999999 L 1687.0576131687 575.40975 L 1690.8744855967 611.49225 L 1694.6913580247 740.328 L 1698.5082304527 749.03025 L 1702.3251028807 660.6811875 L 1706.1419753086 640.6235624999999 L 1709.9588477366 635.3173125000001 L 1713.7757201646 622.9006875 L 1717.5925925926 635.582625 L 1721.4094650206 659.0893125 L 1725.2263374486 608.414625 L 1729.0432098765 591.54075 L 1732.8600823045 572.0137500000001 L 1736.6769547325 522.665625 L 1740.4938271605 535.0822499999999 L 1744.3106995885 511.628625 L 1748.1275720165 493.8526875 L 1751.9444444444 459.1498125 L 1755.7613168724 456.6028125 L 1759.5781893004 485.521875 L 1763.3950617284 450.8720625 L 1767.2119341564 415.054875 L 1771.0288065844 499.5834375 L 1774.8456790123 451.668 L 1778.6625514403 390.0624375 L 1782.4794238683 352.865625 L 1786.2962962963 326.22825 L 1790.1131687243 302.774625 L 1793.9300411523 255.17756250000002 L 1797.7469135802 301.92562499999997 L 1801.5637860082 335.62031249999995 L 1805.3806584362 376.5845625 L 1809.1975308642 431.292 L 1813.0144032922 395.84625 L 1816.8312757202 420.997875 L 1820.6481481481 422.1121875 L 1824.4650205761 428.9041875 L 1828.2818930041 439.4105625 L 1832.0987654321 446.78625 L 1835.9156378601 441.586125" class="highcharts-graph" data-z-index="1" stroke="#2962FF" stroke-width="2" stroke-linejoin="round" stroke-linecap="round"></path></g><g class="highcharts-markers highcharts-series-0 highcharts-line-series" data-z-index="90" opacity="1" transform="translate(0,40) scale(1 1)" clip-path="none"></g></g><text x="1908" text-anchor="end" class="highcharts-title" data-z-index="4" style="color: rgb(51, 51, 51); font-size: 15px; fill: rgb(51, 51, 51);" y="944">source: tradingeconomics.com</text><text x="14" text-anchor="start" class="highcharts-subtitle" data-z-index="4" style="color: rgb(51, 51, 51); fill: rgb(51, 51, 51); font-size: 15px;" y="25">Crude Oil WTI</text><text x="0" text-anchor="start" class="highcharts-caption" data-z-index="4" style="color: rgb(102, 102, 102); fill: rgb(102, 102, 102);" y="957"></text><g class="highcharts-axis-labels highcharts-xaxis-labels" data-z-index="7"><text x="129.65053763441" style="color: black; cursor: default; font-size: 15px; font-weight: 400; fill: black;" text-anchor="middle" transform="translate(0,0)" y="909" opacity="1">1986</text><text x="244.27983539095" style="color: black; cursor: default; font-size: 15px; font-weight: 400; fill: black;" text-anchor="middle" transform="translate(0,0)" y="909" opacity="1">1988</text><text x="358.65877914952" style="color: black; cursor: default; font-size: 15px; font-weight: 400; fill: black;" text-anchor="middle" transform="translate(0,0)" y="909" opacity="1">1991</text><text x="473.29218106996" style="color: black; cursor: default; font-size: 15px; font-weight: 400; fill: black;" text-anchor="middle" transform="translate(0,0)" y="909" opacity="1">1993</text><text x="587.67907664609" style="color: black; cursor: default; font-size: 15px; font-weight: 400; fill: black;" text-anchor="middle" transform="translate(0,0)" y="909" opacity="1">1996</text><text x="702.30452674897" style="color: black; cursor: default; font-size: 15px; font-weight: 400; fill: black;" text-anchor="middle" transform="translate(0,0)" y="909" opacity="1">1998</text><text x="816.6914223251" style="color: black; cursor: default; font-size: 15px; font-weight: 400; fill: black;" text-anchor="middle" transform="translate(0,0)" y="909" opacity="1">2001</text><text x="931.31687242798" style="color: black; cursor: default; font-size: 15px; font-weight: 400; fill: black;" text-anchor="middle" transform="translate(0,0)" y="909" opacity="1">2003</text><text x="1045.5917196658" style="color: black; cursor: default; font-size: 15px; font-weight: 400; fill: black;" text-anchor="middle" transform="translate(0,0)" y="909" opacity="1">2006</text><text x="1160.329218107" style="color: black; cursor: default; font-size: 15px; font-weight: 400; fill: black;" text-anchor="middle" transform="translate(0,0)" y="909" opacity="1">2008</text><text x="1274.6040653448" style="color: black; cursor: default; font-size: 15px; font-weight: 400; fill: black;" text-anchor="middle" transform="translate(0,0)" y="909" opacity="1">2011</text><text x="1389.341563786" style="color: black; cursor: default; font-size: 15px; font-weight: 400; fill: black;" text-anchor="middle" transform="translate(0,0)" y="909" opacity="1">2013</text><text x="1503.8477366255" style="color: black; cursor: default; font-size: 15px; font-weight: 400; fill: black;" text-anchor="middle" transform="translate(0,0)" y="909" opacity="1">2016</text><text x="1618.353909465" style="color: black; cursor: default; font-size: 15px; font-weight: 400; fill: black;" text-anchor="middle" transform="translate(0,0)" y="909" opacity="1">2018</text><text x="1732.5232994432" style="color: black; cursor: default; font-size: 15px; font-weight: 400; fill: black;" text-anchor="middle" transform="translate(0,0)" y="909" opacity="1">2021</text><text x="1847.2390260631" style="color: black; cursor: default; font-size: 15px; font-weight: 400; fill: black;" text-anchor="middle" transform="translate(0,0)" y="909" opacity="1">2023</text></g><g class="highcharts-axis-labels highcharts-yaxis-labels" data-z-index="7"><text x="0" style="color: unset; cursor: default; font-size: 15px; fill: unset;" text-anchor="start" transform="translate(0,0)" visibility="hidden"><tspan>0</tspan></text><text x="1863" style="color: unset; cursor: default; font-size: 15px; fill: unset;" text-anchor="start" transform="translate(0,0)" y="840" opacity="1">10</text><text x="1863" style="color: unset; cursor: default; font-size: 15px; fill: unset;" text-anchor="start" transform="translate(0,0)" y="787" opacity="1">20</text><text x="1863" style="color: unset; cursor: default; font-size: 15px; fill: unset;" text-anchor="start" transform="translate(0,0)" y="734" opacity="1">30</text><text x="1863" style="color: unset; cursor: default; font-size: 15px; fill: unset;" text-anchor="start" transform="translate(0,0)" y="681" opacity="1">40</text><text x="1863" style="color: unset; cursor: default; font-size: 15px; fill: unset;" text-anchor="start" transform="translate(0,0)" y="628" opacity="1">50</text><text x="1863" style="color: unset; cursor: default; font-size: 15px; fill: unset;" text-anchor="start" transform="translate(0,0)" y="575" opacity="1">60</text><text x="1863" style="color: unset; cursor: default; font-size: 15px; fill: unset;" text-anchor="start" transform="translate(0,0)" y="522" opacity="1">70</text><text x="1863" style="color: unset; cursor: default; font-size: 15px; fill: unset;" text-anchor="start" transform="translate(0,0)" y="469" opacity="1">80</text><text x="1863" style="color: unset; cursor: default; font-size: 15px; fill: unset;" text-anchor="start" transform="translate(0,0)" y="416" opacity="1">90</text><text x="1863" style="color: unset; cursor: default; font-size: 15px; fill: unset;" text-anchor="start" transform="translate(0,0)" y="363" opacity="1">100</text><text x="1863" style="color: unset; cursor: default; font-size: 15px; fill: unset;" text-anchor="start" transform="translate(0,0)" y="310" opacity="1">110</text><text x="1863" style="color: unset; cursor: default; font-size: 15px; fill: unset;" text-anchor="start" transform="translate(0,0)" y="257" opacity="1">120</text><text x="1863" style="color: unset; cursor: default; font-size: 15px; fill: unset;" text-anchor="start" transform="translate(0,0)" y="204" opacity="1">130</text><text x="1863" style="color: unset; cursor: default; font-size: 15px; fill: unset;" text-anchor="start" transform="translate(0,0)" y="151" opacity="1">140</text><text x="1863" style="color: unset; cursor: default; font-size: 15px; fill: unset;" text-anchor="start" transform="translate(0,0)" y="98" opacity="1">150</text><text x="0" style="color: unset; cursor: default; font-size: 15px; fill: unset;" text-anchor="start" transform="translate(0,0)" visibility="hidden">160</text></g><g class="highcharts-axis-labels highcharts-yaxis-labels" data-z-index="7"></g><g class="highcharts-axis-labels highcharts-yaxis-labels" data-z-index="7"></g><g class="highcharts-control-points" data-z-index="99" clip-path="url(#highcharts-ek40b8v-2466-)"></g><g class="highcharts-axis highcharts-yaxis" data-z-index="9999"><path fill="none" class="highcharts-tick" stroke="#E7E7E7" stroke-width="1" d="M 1856 889.5 L 1861 889.5" opacity="1"></path><path fill="none" class="highcharts-tick" stroke="#E7E7E7" stroke-width="1" d="M 1856 836.5 L 1861 836.5" opacity="1"></path><path fill="none" class="highcharts-tick" stroke="#E7E7E7" stroke-width="1" d="M 1856 783.5 L 1861 783.5" opacity="1"></path><path fill="none" class="highcharts-tick" stroke="#E7E7E7" stroke-width="1" d="M 1856 730.5 L 1861 730.5" opacity="1"></path><path fill="none" class="highcharts-tick" stroke="#E7E7E7" stroke-width="1" d="M 1856 677.5 L 1861 677.5" opacity="1"></path><path fill="none" class="highcharts-tick" stroke="#E7E7E7" stroke-width="1" d="M 1856 624.5 L 1861 624.5" opacity="1"></path><path fill="none" class="highcharts-tick" stroke="#E7E7E7" stroke-width="1" d="M 1856 571.5 L 1861 571.5" opacity="1"></path><path fill="none" class="highcharts-tick" stroke="#E7E7E7" stroke-width="1" d="M 1856 518.5 L 1861 518.5" opacity="1"></path><path fill="none" class="highcharts-tick" stroke="#E7E7E7" stroke-width="1" d="M 1856 465.5 L 1861 465.5" opacity="1"></path><path fill="none" class="highcharts-tick" stroke="#E7E7E7" stroke-width="1" d="M 1856 411.5 L 1861 411.5" opacity="1"></path><path fill="none" class="highcharts-tick" stroke="#E7E7E7" stroke-width="1" d="M 1856 358.5 L 1861 358.5" opacity="1"></path><path fill="none" class="highcharts-tick" stroke="#E7E7E7" stroke-width="1" d="M 1856 305.5 L 1861 305.5" opacity="1"></path><path fill="none" class="highcharts-tick" stroke="#E7E7E7" stroke-width="1" d="M 1856 252.5 L 1861 252.5" opacity="1"></path><path fill="none" class="highcharts-tick" stroke="#E7E7E7" stroke-width="1" d="M 1856 199.5 L 1861 199.5" opacity="1"></path><path fill="none" class="highcharts-tick" stroke="#E7E7E7" stroke-width="1" d="M 1856 146.5 L 1861 146.5" opacity="1"></path><path fill="none" class="highcharts-tick" stroke="#E7E7E7" stroke-width="1" d="M 1856 93.5 L 1861 93.5" opacity="1"></path><path fill="none" class="highcharts-tick" stroke="#E7E7E7" stroke-width="1" d="M 1856 39.5 L 1861 39.5" opacity="1"></path><path fill="none" class="highcharts-axis-line" stroke="#E6E6E6" stroke-width="1" data-z-index="7" d="M 1856.5 40 L 1856.5 889"></path></g><path fill="none" d="M 0 0 L 1536 0" stroke="#524f4f" stroke-width="1" stroke-dasharray="8,3" data-z-index="6" visibility="hidden" class="crosshair-fix-horizontal"></path><path fill="none" d="M 0 40 L 0 904" stroke="#524f4f" stroke-width="1" stroke-dasharray="8,3" data-z-index="6" visibility="hidden" class="crosshair-fix-vertical"></path></svg>