<?xml version="1.0" standalone="no"?><!DOCTYPE svg PUBLIC "-//W3C//DTD SVG 1.1//EN" "http://www.w3.org/Graphics/SVG/1.1/DTD/svg11.dtd"><svg xmlns:xlink="http://www.w3.org/1999/xlink" version="1.1" class="highcharts-root" style="font-family: &quot;Helvetica Neue&quot;, Helvetica, Arial, sans-serif; font-size: 12px;" xmlns="http://www.w3.org/2000/svg" width="750" height="520" viewBox="0 0 750 520"><desc>Created with Highcharts 10.1.0</desc><defs><clipPath id="highcharts-plihkdt-1131-"><rect x="0" y="0" width="687" height="419" fill="none"></rect></clipPath><clipPath id="highcharts-plihkdt-1433-"><rect x="0" y="0" width="687" height="419" fill="none"></rect></clipPath><clipPath id="highcharts-plihkdt-1740-"><rect x="0" y="40" width="687" height="419" fill="none"></rect></clipPath></defs><rect fill="#ffffff" class="highcharts-background" x="0" y="0" width="750" height="520" rx="0" ry="0"></rect><rect fill="none" class="highcharts-plot-background" x="0" y="40" width="687" height="419"></rect><g class="highcharts-grid highcharts-xaxis-grid" data-z-index="1"><path fill="none" stroke="#EDF3F6" stroke-width="1" stroke-dasharray="none" data-z-index="1" class="highcharts-grid-line" d="M 98.5 40 L 98.5 459" opacity="1"></path><path fill="none" stroke="#EDF3F6" stroke-width="1" stroke-dasharray="none" data-z-index="1" class="highcharts-grid-line" d="M 206.5 40 L 206.5 459" opacity="1"></path><path fill="none" stroke="#EDF3F6" stroke-width="1" stroke-dasharray="none" data-z-index="1" class="highcharts-grid-line" d="M 314.5 40 L 314.5 459" opacity="1"></path><path fill="none" stroke="#EDF3F6" stroke-width="1" stroke-dasharray="none" data-z-index="1" class="highcharts-grid-line" d="M 422.5 40 L 422.5 459" opacity="1"></path><path fill="none" stroke="#EDF3F6" stroke-width="1" stroke-dasharray="none" data-z-index="1" class="highcharts-grid-line" d="M 531.5 40 L 531.5 459" opacity="1"></path><path fill="none" stroke="#EDF3F6" stroke-width="1" stroke-dasharray="none" data-z-index="1" class="highcharts-grid-line" d="M 639.5 40 L 639.5 459" opacity="1"></path></g><g class="highcharts-grid highcharts-yaxis-grid" data-z-index="1"><path fill="none" stroke="#E7E7E7" stroke-width="1" stroke-dasharray="none" data-z-index="1" class="highcharts-grid-line" d="M 0 459.5 L 687 459.5" opacity="1"></path><path fill="none" stroke="#E7E7E7" stroke-width="1" stroke-dasharray="none" data-z-index="1" class="highcharts-grid-line" d="M 0 424.5 L 687 424.5" opacity="1"></path><path fill="none" stroke="#E7E7E7" stroke-width="1" stroke-dasharray="none" data-z-index="1" class="highcharts-grid-line" d="M 0 389.5 L 687 389.5" opacity="1"></path><path fill="none" stroke="#E7E7E7" stroke-width="1" stroke-dasharray="none" data-z-index="1" class="highcharts-grid-line" d="M 0 354.5 L 687 354.5" opacity="1"></path><path fill="none" stroke="#E7E7E7" stroke-width="1" stroke-dasharray="none" data-z-index="1" class="highcharts-grid-line" d="M 0 319.5 L 687 319.5" opacity="1"></path><path fill="none" stroke="#E7E7E7" stroke-width="1" stroke-dasharray="none" data-z-index="1" class="highcharts-grid-line" d="M 0 284.5 L 687 284.5" opacity="1"></path><path fill="none" stroke="#E7E7E7" stroke-width="1" stroke-dasharray="none" data-z-index="1" class="highcharts-grid-line" d="M 0 250.5 L 687 250.5" opacity="1"></path><path fill="none" stroke="#E7E7E7" stroke-width="1" stroke-dasharray="none" data-z-index="1" class="highcharts-grid-line" d="M 0 215.5 L 687 215.5" opacity="1"></path><path fill="none" stroke="#E7E7E7" stroke-width="1" stroke-dasharray="none" data-z-index="1" class="highcharts-grid-line" d="M 0 180.5 L 687 180.5" opacity="1"></path><path fill="none" stroke="#E7E7E7" stroke-width="1" stroke-dasharray="none" data-z-index="1" class="highcharts-grid-line" d="M 0 145.5 L 687 145.5" opacity="1"></path><path fill="none" stroke="#E7E7E7" stroke-width="1" stroke-dasharray="none" data-z-index="1" class="highcharts-grid-line" d="M 0 110.5 L 687 110.5" opacity="1"></path><path fill="none" stroke="#E7E7E7" stroke-width="1" stroke-dasharray="none" data-z-index="1" class="highcharts-grid-line" d="M 0 75.5 L 687 75.5" opacity="1"></path><path fill="none" stroke="#E7E7E7" stroke-width="1" stroke-dasharray="none" data-z-index="1" class="highcharts-grid-line" d="M 0 39.5 L 687 39.5" opacity="1"></path></g><g class="highcharts-grid highcharts-yaxis-grid" data-z-index="1"></g><g class="highcharts-grid highcharts-yaxis-grid" data-z-index="1"></g><rect fill="none" class="highcharts-plot-border" data-z-index="1" x="0" y="40" width="687" height="419"></rect><g class="highcharts-axis highcharts-xaxis" data-z-index="2"><path fill="none" class="highcharts-axis-line" stroke="#E6E6E6" stroke-width="1" data-z-index="7" d="M 0 459.5 L 687 459.5"></path></g><g class="highcharts-axis highcharts-yaxis" data-z-index="2"><path fill="none" class="highcharts-axis-line" data-z-index="7" d="M 728 40 L 728 459"></path></g><g class="highcharts-axis highcharts-yaxis" data-z-index="2"><path fill="none" class="highcharts-axis-line" stroke="#E6E6E6" stroke-width="1" data-z-index="7" d="M -1.5 40 L -1.5 459"></path></g><g class="highcharts-series-group" data-z-index="3"><g class="highcharts-series highcharts-series-0 highcharts-line-series" data-z-index="90" opacity="1" transform="translate(0,40) scale(1 1)" clip-path="url(#highcharts-plihkdt-1433-)"><path fill="none" d="M 0 354.666041666667 L 2.2524590163935 357.459375 L 4.5049180327869 365.752083333333 L 6.7573770491804 370.98958333333303 L 9.0098360655737 359.903541666667 L 11.262295081967 351.174375 L 13.514754098361 357.1975 L 15.767213114754 357.459375 L 18.019672131148 357.72125 L 20.272131147541 371.076875 L 22.524590163934 356.062708333333 L 24.777049180328 363.4825 L 27.029508196721 372.037083333333 L 29.281967213115 366.625 L 31.534426229508 361.823958333333 L 33.786885245902 361.474791666667 L 36.039344262295 357.633958333333 L 38.291803278688 364.61729166666703 L 40.544262295082 372.560833333333 L 42.796721311475 374.132083333333 L 45.049180327869 364.44270833333303 L 47.301639344262 367.6725 L 49.554098360656 362.347708333333 L 51.806557377049 369.331041666667 L 54.059016393443 357.983125 L 56.311475409836 363.307916666667 L 58.563934426229 367.934375 L 60.816393442623 366.36312499999997 L 63.068852459016 361.3875 L 65.32131147541 364.966458333333 L 67.573770491803 364.53 L 69.826229508197 356.324583333333 L 72.07868852459 358.594166666667 L 74.331147540984 361.3875 L 76.583606557377 364.879166666667 L 78.836065573771 358.681458333333 L 81.088524590164 360.689166666667 L 83.340983606557 367.759791666667 L 85.593442622951 356.67375 L 87.845901639344 356.848333333333 L 90.098360655738 359.379791666667 L 92.350819672131 351.52354166666703 L 94.603278688525 355.62625 L 96.855737704918 353.0075 L 99.108196721312 354.055 L 101.3606557377 360.601875 L 103.6131147541 348.99208333333297 L 105.86557377049 362.522291666667 L 108.11803278689 355.364375 L 110.37049180328 346.72249999999997 L 112.62295081967 337.295 L 114.87540983607 327.431041666667 L 117.12786885246 315.47208333333003 L 119.38032786885 313.464375 L 121.63278688525 323.6775 L 123.88524590164 340.4375 L 126.13770491803 342.00875 L 128.39016393443 344.80208333333303 L 130.64262295082 353.79312500000003 L 132.89508196721 356.324583333333 L 135.14754098361 340.69937500000003 L 137.4 348.555625 L 139.65245901639 332.232083333333 L 141.90491803279 325.597916666667 L 144.15737704918 328.129375 L 146.40983606557 324.899583333333 L 148.66229508197 316.25770833333 L 150.91475409836 322.280833333333 L 153.16721311475 318.09083333333 L 155.41967213115 320.971458333333 L 157.67213114754 311.45666666667 L 159.92459016393 320.709583333333 L 162.17704918033 328.042083333333 L 164.42950819672 335.89833333333297 L 166.68196721311 344.889375 L 168.93442622951 345.762291666667 L 171.1868852459 346.809791666667 L 173.4393442623 343.405416666667 L 175.69180327869 352.745625 L 177.94426229508 331.53375 L 180.19672131148 352.309166666667 L 182.44918032787 336.160208333333 L 184.70163934426 338.3425 L 186.95409836066 342.881666666667 L 189.20655737705 338.080625 L 191.45901639344 341.659583333333 L 193.71147540984 339.477291666667 L 195.96393442623 348.642916666667 L 198.21639344262 333.017708333333 L 200.46885245902 343.230833333333 L 202.72131147541 347.77 L 204.9737704918 335.461875 L 207.2262295082 334.065208333333 L 209.47868852459 324.63770833333297 L 211.73114754098 332.493958333333 L 213.98360655738 333.017708333333 L 216.23606557377 316.51958333333 L 218.48852459016 324.20125 L 220.74098360656 315.12291666667 L 222.99344262295 312.85333333333 L 225.24590163934 299.23583333333 L 227.49836065574 285.26916666667 L 229.75081967213 278.635 L 232.00327868852 278.98416666667003 L 234.25573770492 290.68125 L 236.50819672131 288.23708333333 L 238.7606557377 300.98166666667 L 241.0131147541 284.39625 L 243.26557377049 273.39750000000004 L 245.51803278689 250.70166666667 L 247.77049180328 233.94166666667 L 250.02295081967 186.10583333333 L 252.27540983607 126.04916666666998 L 254.52786885246 171.79 L 256.78032786885 151.18916666667002 L 259.03278688525 144.90416666667 L 261.28524590164 129.36624999999998 L 263.53770491803 79.26083333333003 L 265.79016393443 129.54083333333 L 268.04262295082 179.03520833333 L 270.29508196721 188.02625 L 272.54754098361 159.39458333333 L 274.8 180.25729166667 L 277.05245901639 181.82854166667 L 279.30491803279 216.48333333333 L 281.55737704918 266.67604166667 L 283.80983606557 264.49375 L 286.06229508197 240.663125 L 288.31475409836 255.59 L 290.56721311475 275.66708333332997 L 292.81967213115 267.898125 L 295.07213114754 270.86604166666996 L 297.32459016393 231.41020833333 L 299.57704918033 275.40520833333 L 301.82950819672 269.469375 L 304.08196721311 289.45916666667 L 306.33442622951 294.17291666667 L 308.5868852459 281.34104166667 L 310.8393442623 255.76458333333 L 313.09180327869 264.84291666667 L 315.34426229508 288.41166666667 L 317.59672131148 277.06375 L 319.84918032787 296.61708333333 L 322.10163934426 282.21395833332997 L 324.35409836066 296.26791666667 L 326.60655737705 291.64145833333 L 328.85901639344 222.94291666667 L 331.11147540984 226.08541666667 L 333.36393442623 218.57833333333 L 335.61639344262 203.476875 L 337.86885245902 226.87104166667 L 340.12131147541 176.59104166667 L 342.3737704918 160.35479166667 L 344.6262295082 180.69375 L 346.87868852459 187.41520833333 L 349.13114754098 185.32020833333 L 351.38360655738 180.78104166667 L 353.63606557377 249.74145833333 L 355.88852459016 219.10208333333 L 358.14098360656 193.70020833333 L 360.39344262295 241.186875 L 362.64590163934 234.55270833333 L 364.89836065574 245.900625 L 367.15081967213 225.998125 L 369.40327868852 221.37166666667 L 371.65573770492 221.98270833333 L 373.90819672131 223.20479166667 L 376.1606557377 227.74395833333 L 378.4131147541 229.140625 L 380.66557377049 195.8825 L 382.91803278689 143.76937500000003 L 385.17049180328 150.14166666667 L 387.42295081967 138.79375 L 389.67540983607 152.06208333333 L 391.92786885246 158.958125 L 394.18032786885 182.265 L 396.43278688525 181.74125 L 398.68524590164 206.79395833333 L 400.93770491803 210.5475 L 403.19016393443 201.905625 L 405.44262295082 207.57958333333 L 407.69508196721 227.48208333333 L 409.94754098361 221.98270833333 L 412.2 229.31520833333 L 414.45245901639 217.00708333333 L 416.70491803279 220.84791666667 L 418.95737704918 225.2125 L 421.20983606557 242.58354166667 L 423.46229508197 259.86729166667 L 425.71475409836 244.76583333333 L 427.96721311475 210.46020833333 L 430.21967213115 204.96083333333 L 432.47213114754 234.901875 L 434.72459016393 256.72479166667 L 436.97704918033 268.77104166667 L 439.22950819672 261.78770833333 L 441.48196721311 287.10229166667 L 443.73442622951 267.98541666667 L 445.9868852459 252.36020833333 L 448.2393442623 247.995625 L 450.49180327869 278.37312499999996 L 452.74426229508 273.22291666667 L 454.99672131148 275.23062500000003 L 457.24918032787 290.85583333333 L 459.50163934426 287.36416666667003 L 461.75409836066 238.91729166667 L 464.00655737705 279.59520833333 L 466.25901639344 285.44375 L 468.51147540984 274.88145833333 L 470.76393442623 271.65166666667 L 473.01639344262 293.3 L 475.26885245902 289.80833333333 L 477.52131147541 286.57854166667 L 479.7737704918 298.5375 L 482.0262295082 288.58625 L 484.27868852459 287.015 L 486.53114754098 291.72875 L 488.78360655738 303.33854166667 L 491.03606557377 311.54395833333 L 493.28852459016 327.8675 L 495.54098360656 313.55166666667003 L 497.79344262295 308.57604166667 L 500.04590163934 321.05875000000003 L 502.29836065574 311.45666666667 L 504.55081967213 307.00479166667003 L 506.80327868852 305.608125 L 509.05573770492 304.99708333333 L 511.30819672131 307.79041666667 L 513.5606557377 304.036875 L 515.8131147541 275.4925 L 518.06557377049 288.23708333333 L 520.31803278689 310.67104166667 L 522.57049180328 297.40270833333 L 524.82295081967 307.79041666667 L 527.07540983607 311.02020833333 L 529.32786885246 304.8225 L 531.58032786885 296.180625 L 533.83278688525 284.74541666667 L 536.08524590164 296.4425 L 538.33770491803 274.96875 L 540.59016393443 270.16770833333 L 542.84262295082 280.20625 L 545.09508196721 260.565625 L 547.34754098361 272.6359675 L 549.6 276.19083333333003 L 551.85245901639 279.15875 L 554.10491803279 273.83395833333 L 556.35737704918 278.19854166667 L 558.60983606557 273.57208333333 L 560.86229508197 295.91875 L 563.11475409836 294.085625 L 565.36721311475 307.79041666667 L 567.61967213115 278.28583333333 L 569.87213114754 269.55666666667 L 572.12459016393 283.78520833333 L 574.37704918033 296.35520833333 L 576.62950819672 280.81729166667003 L 578.88196721311 276.278125 L 581.13442622951 262.72148475 L 583.3868852459 258.64189124999996 L 585.63934426229 259.88824166667 L 587.89180327869 270.65497041667004 L 590.14426229508 257.59770833333 L 592.39672131148 270.86604166666996 L 594.64918032787 272.00083333333 L 596.90163934426 283.08687499999996 L 599.15409836066 268.59645833333 L 601.40655737705 264.31916666666996 L 603.65901639344 252.09833333333 L 605.91147540984 244.94041666667 L 608.16393442623 251.31270833333 L 610.41639344262 230.27541666667 L 612.66885245902 222.41916666667 L 614.92131147541 225.2125 L 617.1737704918 238.13166666667 L 619.4262295082 194.66041666667 L 621.67868852459 222.24458333333 L 623.93114754098 219.45125 L 626.18360655738 208.190625 L 628.43606557377 207.143125 L 630.68852459016 200.59625 L 632.94098360656 184.098125 L 635.19344262295 183.74895833333 L 637.44590163934 184.79645833333 L 639.69836065574 188.37541666667 L 641.95081967213 133.73083333333 L 644.20327868852 104.05166666666997 L 646.45573770492 85.28395833333002 L 648.70819672131 74.19791666666998 L 650.9606557377 145.25333333332998 L 653.2131147541 171.87729166667 L 655.46557377049 163.58458333333 L 657.71803278689 132.15958333332998 L 659.97049180328 145.864375 L 662.22295081967 176.15458333333 L 664.47540983607 177.37666666667 L 666.72786885246 184.88375 L 668.98032786885 207.57958333333 L 671.23278688525 212.20604166667 L 673.48524590164 237.520625 L 675.73770491803 235.62021558333" class="highcharts-graph" data-z-index="1" stroke="#2962FF" stroke-width="2" stroke-linejoin="round" stroke-linecap="round"></path></g><g class="highcharts-markers highcharts-series-0 highcharts-line-series" data-z-index="90" opacity="1" transform="translate(0,40) scale(1 1)" clip-path="none"></g></g><text x="740" text-anchor="end" class="highcharts-title" data-z-index="4" style="color: rgb(51, 51, 51); font-size: 15px; fill: rgb(51, 51, 51);" y="514">source: tradingeconomics.com</text><text x="14" text-anchor="start" class="highcharts-subtitle" data-z-index="4" style="color: rgb(51, 51, 51); fill: rgb(51, 51, 51); font-size: 15px;" y="25">Wheat</text><text x="0" text-anchor="start" class="highcharts-caption" data-z-index="4" style="color: rgb(102, 102, 102); fill: rgb(102, 102, 102);" y="527"></text><g class="highcharts-axis-labels highcharts-xaxis-labels" data-z-index="7"><text x="99.108196721312" style="color: black; cursor: default; font-size: 15px; font-weight: 400; fill: black;" text-anchor="middle" transform="translate(0,0)" y="479" opacity="1">2002</text><text x="207.15584016393" style="color: black; cursor: default; font-size: 15px; font-weight: 400; fill: black;" text-anchor="middle" transform="translate(0,0)" y="479" opacity="1">2006</text><text x="315.34426229508" style="color: black; cursor: default; font-size: 15px; font-weight: 400; fill: black;" text-anchor="middle" transform="translate(0,0)" y="479" opacity="1">2010</text><text x="423.46229508197" style="color: black; cursor: default; font-size: 15px; font-weight: 400; fill: black;" text-anchor="middle" transform="translate(0,0)" y="479" opacity="1">2014</text><text x="531.50993852459" style="color: black; cursor: default; font-size: 15px; font-weight: 400; fill: black;" text-anchor="middle" transform="translate(0,0)" y="479" opacity="1">2018</text><text x="639.56184798808" style="color: black; cursor: default; font-size: 15px; font-weight: 400; fill: black;" text-anchor="middle" transform="translate(0,0)" y="479" opacity="1">2022</text></g><g class="highcharts-axis-labels highcharts-yaxis-labels" data-z-index="7"><text x="0" style="color: unset; cursor: default; font-size: 15px; fill: unset;" text-anchor="start" transform="translate(0,0)" visibility="hidden">100</text><text x="695" style="color: unset; cursor: default; font-size: 15px; fill: unset;" text-anchor="start" transform="translate(0,0)" y="429" opacity="1">200</text><text x="695" style="color: unset; cursor: default; font-size: 15px; fill: unset;" text-anchor="start" transform="translate(0,0)" y="394" opacity="1">300</text><text x="695" style="color: unset; cursor: default; font-size: 15px; fill: unset;" text-anchor="start" transform="translate(0,0)" y="359" opacity="1">400</text><text x="695" style="color: unset; cursor: default; font-size: 15px; fill: unset;" text-anchor="start" transform="translate(0,0)" y="324" opacity="1">500</text><text x="695" style="color: unset; cursor: default; font-size: 15px; fill: unset;" text-anchor="start" transform="translate(0,0)" y="289" opacity="1">600</text><text x="695" style="color: unset; cursor: default; font-size: 15px; fill: unset;" text-anchor="start" transform="translate(0,0)" y="254" opacity="1">700</text><text x="695" style="color: unset; cursor: default; font-size: 15px; fill: unset;" text-anchor="start" transform="translate(0,0)" y="219" opacity="1">800</text><text x="695" style="color: unset; cursor: default; font-size: 15px; fill: unset;" text-anchor="start" transform="translate(0,0)" y="184" opacity="1">900</text><text x="695" style="color: unset; cursor: default; font-size: 15px; fill: unset;" text-anchor="start" transform="translate(0,0)" y="149" opacity="1">1000</text><text x="695" style="color: unset; cursor: default; font-size: 15px; fill: unset;" text-anchor="start" transform="translate(0,0)" y="114" opacity="1">1100</text><text x="695" style="color: unset; cursor: default; font-size: 15px; fill: unset;" text-anchor="start" transform="translate(0,0)" y="79" opacity="1">1200</text><text x="0" style="color: unset; cursor: default; font-size: 15px; fill: unset;" text-anchor="start" transform="translate(0,0)" visibility="hidden">1300</text></g><g class="highcharts-axis-labels highcharts-yaxis-labels" data-z-index="7"></g><g class="highcharts-axis-labels highcharts-yaxis-labels" data-z-index="7"></g><g class="highcharts-control-points" data-z-index="99" clip-path="url(#highcharts-plihkdt-1740-)"></g><g class="highcharts-axis highcharts-yaxis" data-z-index="9999"><path fill="none" class="highcharts-tick" stroke="#E7E7E7" stroke-width="1" d="M 688 459.5 L 693 459.5" opacity="1"></path><path fill="none" class="highcharts-tick" stroke="#E7E7E7" stroke-width="1" d="M 688 424.5 L 693 424.5" opacity="1"></path><path fill="none" class="highcharts-tick" stroke="#E7E7E7" stroke-width="1" d="M 688 389.5 L 693 389.5" opacity="1"></path><path fill="none" class="highcharts-tick" stroke="#E7E7E7" stroke-width="1" d="M 688 354.5 L 693 354.5" opacity="1"></path><path fill="none" class="highcharts-tick" stroke="#E7E7E7" stroke-width="1" d="M 688 319.5 L 693 319.5" opacity="1"></path><path fill="none" class="highcharts-tick" stroke="#E7E7E7" stroke-width="1" d="M 688 284.5 L 693 284.5" opacity="1"></path><path fill="none" class="highcharts-tick" stroke="#E7E7E7" stroke-width="1" d="M 688 250.5 L 693 250.5" opacity="1"></path><path fill="none" class="highcharts-tick" stroke="#E7E7E7" stroke-width="1" d="M 688 215.5 L 693 215.5" opacity="1"></path><path fill="none" class="highcharts-tick" stroke="#E7E7E7" stroke-width="1" d="M 688 180.5 L 693 180.5" opacity="1"></path><path fill="none" class="highcharts-tick" stroke="#E7E7E7" stroke-width="1" d="M 688 145.5 L 693 145.5" opacity="1"></path><path fill="none" class="highcharts-tick" stroke="#E7E7E7" stroke-width="1" d="M 688 110.5 L 693 110.5" opacity="1"></path><path fill="none" class="highcharts-tick" stroke="#E7E7E7" stroke-width="1" d="M 688 75.5 L 693 75.5" opacity="1"></path><path fill="none" class="highcharts-tick" stroke="#E7E7E7" stroke-width="1" d="M 688 39.5 L 693 39.5" opacity="1"></path><path fill="none" class="highcharts-axis-line" stroke="#E6E6E6" stroke-width="1" data-z-index="7" d="M 688.5 40 L 688.5 459"></path></g><path fill="none" d="M 0 0 L 1760 0" stroke="#524f4f" stroke-width="1" stroke-dasharray="8,3" data-z-index="6" visibility="hidden" class="crosshair-fix-horizontal"></path><path fill="none" d="M 0 40 L 0 1140" stroke="#524f4f" stroke-width="1" stroke-dasharray="8,3" data-z-index="6" visibility="hidden" class="crosshair-fix-vertical"></path></svg>