<?xml version="1.0" standalone="no"?><!DOCTYPE svg PUBLIC "-//W3C//DTD SVG 1.1//EN" "http://www.w3.org/Graphics/SVG/1.1/DTD/svg11.dtd"><svg xmlns:xlink="http://www.w3.org/1999/xlink" version="1.1" class="highcharts-root" style="font-family:'Helvetica Neue',Helvetica,Arial,sans-serif;font-size:12px;" xmlns="http://www.w3.org/2000/svg" width="746" height="468" viewBox="0 0 746 468"><desc>Created with Highcharts 7.2.0</desc><defs><clipPath id="highcharts-u8qgdnf-614-"><rect x="0" y="0" width="686" height="373" fill="none"></rect></clipPath><clipPath id="highcharts-u8qgdnf-915-"><rect x="0" y="0" width="686" height="373" fill="none"></rect></clipPath></defs><rect fill="#ffffff" class="highcharts-background" x="0" y="0" width="746" height="468" rx="0" ry="0"></rect><rect fill="none" class="highcharts-plot-background" x="0" y="41" width="686" height="373"></rect><g class="highcharts-grid highcharts-xaxis-grid" data-z-index="1"><path fill="none" stroke="#EDF3F6" stroke-width="1" data-z-index="1" class="highcharts-grid-line" d="M 45.5 41 L 45.5 414" opacity="1"></path><path fill="none" stroke="#EDF3F6" stroke-width="1" data-z-index="1" class="highcharts-grid-line" d="M 153.5 41 L 153.5 414" opacity="1"></path><path fill="none" stroke="#EDF3F6" stroke-width="1" data-z-index="1" class="highcharts-grid-line" d="M 273.5 41 L 273.5 414" opacity="1"></path><path fill="none" stroke="#EDF3F6" stroke-width="1" data-z-index="1" class="highcharts-grid-line" d="M 390.5 41 L 390.5 414" opacity="1"></path><path fill="none" stroke="#EDF3F6" stroke-width="1" data-z-index="1" class="highcharts-grid-line" d="M 499.5 41 L 499.5 414" opacity="1"></path><path fill="none" stroke="#EDF3F6" stroke-width="1" data-z-index="1" class="highcharts-grid-line" d="M 601.5 41 L 601.5 414" opacity="1"></path></g><g class="highcharts-grid highcharts-yaxis-grid" data-z-index="1"><path fill="none" stroke="#E7E7E7" stroke-width="1" data-z-index="1" class="highcharts-grid-line" d="M 0 414.5 L 686 414.5" opacity="1"></path><path fill="none" stroke="#E7E7E7" stroke-width="1" data-z-index="1" class="highcharts-grid-line" d="M 0 380.5 L 686 380.5" opacity="1"></path><path fill="none" stroke="#E7E7E7" stroke-width="1" data-z-index="1" class="highcharts-grid-line" d="M 0 346.5 L 686 346.5" opacity="1"></path><path fill="none" stroke="#E7E7E7" stroke-width="1" data-z-index="1" class="highcharts-grid-line" d="M 0 312.5 L 686 312.5" opacity="1"></path><path fill="none" stroke="#E7E7E7" stroke-width="1" data-z-index="1" class="highcharts-grid-line" d="M 0 278.5 L 686 278.5" opacity="1"></path><path fill="none" stroke="#E7E7E7" stroke-width="1" data-z-index="1" class="highcharts-grid-line" d="M 0 244.5 L 686 244.5" opacity="1"></path><path fill="none" stroke="#E7E7E7" stroke-width="1" data-z-index="1" class="highcharts-grid-line" d="M 0 211.5 L 686 211.5" opacity="1"></path><path fill="none" stroke="#E7E7E7" stroke-width="1" data-z-index="1" class="highcharts-grid-line" d="M 0 177.5 L 686 177.5" opacity="1"></path><path fill="none" stroke="#E7E7E7" stroke-width="1" data-z-index="1" class="highcharts-grid-line" d="M 0 143.5 L 686 143.5" opacity="1"></path><path fill="none" stroke="#E7E7E7" stroke-width="1" data-z-index="1" class="highcharts-grid-line" d="M 0 109.5 L 686 109.5" opacity="1"></path><path fill="none" stroke="#E7E7E7" stroke-width="1" data-z-index="1" class="highcharts-grid-line" d="M 0 75.5 L 686 75.5" opacity="1"></path><path fill="none" stroke="#E7E7E7" stroke-width="1" data-z-index="1" class="highcharts-grid-line" d="M 0 40.5 L 686 40.5" opacity="1"></path></g><g class="highcharts-grid highcharts-yaxis-grid" data-z-index="1"></g><rect fill="none" class="highcharts-plot-border" data-z-index="1" x="0" y="41" width="686" height="373"></rect><g class="highcharts-axis highcharts-xaxis" data-z-index="2"><path fill="none" class="highcharts-axis-line" stroke="#000000" stroke-width="1" data-z-index="7" d="M 0 414.5 L 686 414.5"></path></g><g class="highcharts-axis highcharts-yaxis" data-z-index="2"><path fill="none" class="highcharts-tick" stroke="#000000" stroke-width="1" d="M 687 414.5 L 697 414.5" opacity="1"></path><path fill="none" class="highcharts-tick" stroke="#000000" stroke-width="1" d="M 687 380.5 L 697 380.5" opacity="1"></path><path fill="none" class="highcharts-tick" stroke="#000000" stroke-width="1" d="M 687 346.5 L 697 346.5" opacity="1"></path><path fill="none" class="highcharts-tick" stroke="#000000" stroke-width="1" d="M 687 312.5 L 697 312.5" opacity="1"></path><path fill="none" class="highcharts-tick" stroke="#000000" stroke-width="1" d="M 687 278.5 L 697 278.5" opacity="1"></path><path fill="none" class="highcharts-tick" stroke="#000000" stroke-width="1" d="M 687 244.5 L 697 244.5" opacity="1"></path><path fill="none" class="highcharts-tick" stroke="#000000" stroke-width="1" d="M 687 211.5 L 697 211.5" opacity="1"></path><path fill="none" class="highcharts-tick" stroke="#000000" stroke-width="1" d="M 687 177.5 L 697 177.5" opacity="1"></path><path fill="none" class="highcharts-tick" stroke="#000000" stroke-width="1" d="M 687 143.5 L 697 143.5" opacity="1"></path><path fill="none" class="highcharts-tick" stroke="#000000" stroke-width="1" d="M 687 109.5 L 697 109.5" opacity="1"></path><path fill="none" class="highcharts-tick" stroke="#000000" stroke-width="1" d="M 687 75.5 L 697 75.5" opacity="1"></path><path fill="none" class="highcharts-tick" stroke="#000000" stroke-width="1" d="M 687 40.5 L 697 40.5" opacity="1"></path><path fill="none" class="highcharts-axis-line" stroke="#000000" stroke-width="1" data-z-index="7" d="M 687.5 41 L 687.5 414"></path></g><g class="highcharts-axis highcharts-yaxis" data-z-index="2"><path fill="none" class="highcharts-axis-line" stroke="#000000" stroke-width="1" data-z-index="7" d="M -1.5 41 L -1.5 414"></path></g><g class="highcharts-series-group" data-z-index="3"><g data-z-index="90" class="highcharts-series highcharts-series-0 highcharts-line-series " transform="translate(0,41) scale(1 1)" clip-path="url(#highcharts-u8qgdnf-915-)"><path fill="none" d="M -165.2 358.42496396363634 L -162.4 357.7617356476364 L -159.6 356.8263183807273 L -156.8 356.25113759636366 L -154 356.4894276290909 L -151.2 356.07402932945456 L -148.4 356.1717701138182 L -145.6 356.3306289149091 L -142.8 356.9111695058182 L -140 356.96120345454545 L -137.2 357.1788372898182 L -134.4 358.31432022763636 L -131.6 358.34297178181816 L -128.8 359.1508762181818 L -126 357.9622803861818 L -123.2 356.48556484109093 L -120.4 355.42951625454543 L -117.6 355.68310837490907 L -114.8 355.91844696036367 L -112 355.96835802254543 L -109.2 355.74991877854546 L -106.4 355.75350256254546 L -103.6 355.6335576985455 L -100.8 355.482135568 L -97.999999999999 355.60394231236364 L -95.200000000002 355.84887079563634 L -92.399999999999 356.1961613298182 L -89.600000000002 355.73009050545454 L -86.799999999999 356.109934852 L -84.000000000002 356.4788889549091 L -81.199999999999 356.8713687781818 L -78.400000000001 356.94914131272725 L -75.599999999999 357.91496336945454 L -72.800000000001 358.31156830145454 L -69.999999999999 358.24660811345456 L -67.200000000001 358.7959701090909 L -64.399999999999 358.9878480909091 L -61.600000000001 358.865084432 L -58.799999999999 358.8082782952727 L -56.000000000001 358.32457569309094 L -53.199999999998 358.9065273090909 L -50.400000000001 358.8406080363636 L -47.599999999998 358.9674061989091 L -44.800000000001 358.6617986181818 L -41.999999999998 358.6486363298182 L -39.200000000001 358.90904756836363 L -36.399999999998 358.88423248872726 L -33.600000000001 359.26655640363634 L -30.799999999998 359.66329954909094 L -28.000000000001 360.4743236218182 L -25.200000000003 360.7729433527273 L -22.4 360.8120758 L -19.600000000003 360.9896631345455 L -16.8 360.9767614036364 L -14.000000000003 359.27428659127276 L -11.2 358.6746584374545 L -8.4000000000028 357.00574413054545 L -5.6000000000001 355.72922256836364 L -2.8000000000027 354.9486374658182 L 0 352.58877877272727 L 2.7999999999974 350.70756385236365 L 5.6000000000001 346.959897216 L 8.3999999999976 342.1295583381818 L 11.2 339.213140784 L 13.999999999998 339.29302083636367 L 16.8 340.1903541250909 L 19.599999999998 341.7028733298182 L 22.4 339.3708761090909 L 25.199999999998 338.3690206247273 L 28.000000000001 335.7323111589091 L 30.799999999998 333.1510620458182 L 33.600000000001 334.170967068 L 36.399999999998 334.6985831636364 L 39.200000000001 335.0283117727273 L 41.999999999998 334.4197012363636 L 44.800000000001 333.757043 L 47.599999999998 332.6973584094545 L 50.400000000001 331.80510687272726 L 53.199999999998 330.96830429527273 L 56.000000000001 330.07311690945454 L 58.799999999999 328.59497392727275 L 61.600000000001 328.6714423181818 L 64.399999999999 329.0124787952727 L 67.200000000001 330.6490917090909 L 69.999999999999 333.85015736363636 L 72.800000000001 333.19033731818183 L 75.599999999999 332.9160550912727 L 78.400000000001 332.5465012043636 L 81.199999999999 332.30519136363637 L 84.000000000002 332.63111279563634 L 86.799999999999 331.44452777272727 L 89.600000000002 332.7073464 L 92.399999999999 331.80922425018184 L 95.200000000002 329.08557065454545 L 97.999999999999 329.02126545454547 L 100.8 328.23705669090907 L 103.6 326.66051454545453 L 106.4 325.94906370436365 L 109.2 325.95289543163636 L 112 326.28715850000003 L 114.8 327.1744491367273 L 117.6 327.96694704545456 L 120.4 328.2897615909091 L 123.2 328.44479734545456 L 126 328.1783447276364 L 128.8 328.8036327043636 L 131.6 329.27411279563637 L 134.4 329.15116304363636 L 137.2 329.4189051563636 L 140 329.4981357818182 L 142.8 328.89302547745456 L 145.6 330.66825115927276 L 148.4 330.25216965927274 L 151.2 329.4528874909091 L 154 329.90480072727274 L 156.8 330.4897664545455 L 159.6 332.0678785909091 L 162.4 331.5523544770909 L 165.2 327.71420143163635 L 168 328.50931440945453 L 170.8 329.1074326592727 L 173.6 327.6982276727273 L 176.4 329.55260734545453 L 179.2 330.0185318181818 L 182 330.0216005909091 L 184.8 329.94239315927274 L 187.6 329.7208439090909 L 190.4 329.0121311592727 L 193.2 328.6505501134545 L 196 327.4440222047273 L 198.8 325.2109093185455 L 201.6 325.4391497818182 L 204.4 325.2897140458182 L 207.2 325.07705752254543 L 210 323.7444819272727 L 212.8 322.24375372727275 L 215.6 320.5350814181818 L 218.4 318.85128481818185 L 221.2 317.8143067043636 L 224 316.2366862498182 L 226.8 309.69869138618185 L 229.6 308.0268968410909 L 232.4 311.87088821818185 L 235.2 310.09151965927276 L 238 306.3220367276364 L 240.8 305.5420853181818 L 243.6 306.83723287272727 L 246.4 307.0207624363636 L 249.2 306.4324024090909 L 252 305.36713556836366 L 254.8 304.83202556363636 L 257.6 303.9730567490909 L 260.4 303.10435602545454 L 263.2 303.027543932 L 266 303.33435596363637 L 268.8 301.9434236367273 L 271.6 302.11812327309093 L 274.4 302.66293643200004 L 277.2 302.7584413865454 L 280 302.70346240727275 L 282.8 302.19245240727275 L 285.6 302.1822878181818 L 288.4 302.33774404545454 L 291.2 302.677085068 L 294 302.8416882047273 L 296.8 303.146263864 L 299.6 304.7762824090909 L 302.4 303.51884434072724 L 305.2 303.619656068 L 308 304.9357738181818 L 310.8 303.84811422763636 L 313.6 305.17866884109094 L 316.4 304.5823096592727 L 319.2 303.9598743865455 L 322 302.471295 L 324.8 302.0963350545455 L 327.6 300.85658640945456 L 330.4 299.91181647272725 L 333.2 299.4021357090909 L 336 299.3898334909091 L 338.8 299.38600000036365 L 341.6 298.83310047272727 L 344.4 299.60681600036366 L 347.2 298.8617654549091 L 350 299.0301801090909 L 352.8 297.5640052727273 L 355.6 297.8455321090909 L 358.4 298.23899109127274 L 361.2 298.4450990909091 L 364 298.3963717272727 L 366.8 297.41820974545453 L 369.6 297.6861186909091 L 372.4 297.9868652 L 375.2 297.35501676363634 L 378 296.2952966363637 L 380.8 297.58458130909094 L 383.6 295.1473857454545 L 386.4 294.74025109127274 L 389.2 294.3184848 L 392 294.8632546909091 L 394.8 294.3905890909091 L 397.6 294.69929745454544 L 400.4 294.2259349549091 L 403.2 294.01864705454545 L 406 293.79107636363636 L 408.8 292.88573754545456 L 411.6 292.14607000036364 L 414.4 290.3914729818182 L 417.2 287.25787963636367 L 420 288.63201163636364 L 422.8 288.62128781854545 L 425.6 287.7056966545455 L 428.4 286.46136350036363 L 431.2 278.06637294545453 L 434 265.29943745454545 L 436.8 264.3742702276364 L 439.6 252.08512400036363 L 442.4 217.99449236363637 L 445.2 200.26025754909094 L 448 201.28841509454548 L 450.8 206.0635610945455 L 453.6 197.8547127309091 L 456.4 186.29951182181821 L 459.2 190.67142854545455 L 462 194.65689963636365 L 464.8 196.88765936727276 L 467.6 199.5034920909091 L 470.4 198.24187045454548 L 473.2 192.41774672727274 L 476 193.63062336727276 L 478.8 200.65682436727275 L 481.6 201.11464863636365 L 484.4 205.47322145454547 L 487.2 206.13717773090912 L 490 206.24914554909094 L 492.8 205.03236936363638 L 495.6 203.14875327272728 L 498.4 192.3242417309091 L 501.2 176.5600749127273 L 504 185.55234263636365 L 506.8 176.34185363636365 L 509.6 148.1228940036364 L 512.4 114.5183243636364 L 515.2 128.2854491818182 L 518 136.19355781818183 L 520.8 126.34722182181821 L 523.6 136.72604854909093 L 526.4 128.9166831854546 L 529.2 130.88654772727273 L 532 111.84622018181818 L 534.8 102.10815591272728 L 537.6 110.37582027272731 L 540.4 117.03805736727276 L 543.2 113.95336500000002 L 546 112.36694445818182 L 548.8 111.98751936363635 L 551.6 114.54451845818187 L 554.4 117.02400272727274 L 557.2 110.27134636363638 L 560 114.85612672727274 L 562.8 118.29990009090909 L 565.6 122.06821736363636 L 568.4 119.27558264000004 L 571.2 118.74816064000004 L 574 117.62636381818183 L 576.8 119.22916109454547 L 579.6 120.73703054909095 L 582.4 118.64506072727275 L 585.2 114.19878136727277 L 588 99.76208764 L 590.8 98.36559327272727 L 593.6 94.43590263636366 L 596.4 81.33651563636363 L 599.2 60.93114372727274 L 602 54.18476054545454 L 604.8 34.74884954545456 L 607.6 55.15862963636363 L 610.4 48.35592345454546 L 613.2 41.809909090909116 L 616 32.328181272727306 L 618.8 18.220236181818223 L 621.6 23.480858636363678 L 624.4 19.444320454545448 L 627.2 14.20333136363638 L 630 11.079659818181824 L 632.8 372.6338942607273 L 635.6 372.6334929954655 L 638.4 372.6345009296291 L 641.2 372.6390472218182 L 644 372.6391869272727 L 646.8 372.63523584 L 649.6 372.63264111636363 L 652.4 372.6212029018182 L 655.2 372.62709087636364 L 658 372.6277080218182 L 660.8 372.61511418545456 L 663.6 372.6159415672727 L 666.4 372.6163104981818 L 669.2 372.6141281090909 L 672 372.60383195272726" class="highcharts-graph" data-z-index="1" stroke="#428bca" stroke-width="3" stroke-linejoin="round" stroke-linecap="round"></path></g><g data-z-index="90" class="highcharts-markers highcharts-series-0 highcharts-line-series " transform="translate(0,41) scale(1 1)" clip-path="none"></g></g><text x="736" text-anchor="end" class="highcharts-title" data-z-index="4" style="color:#858585;font-size:16px;fill:#858585;font-size:0.8em;" y="467"><tspan>SOURCE: TRADINGECONOMICS.COM</tspan></text><text x="10" text-anchor="start" class="highcharts-subtitle" data-z-index="4" style="color:#000000;fill:#000000;font-size:1em;" y="25"><tspan>Caracas Stock Exchange Stock Market Index</tspan></text><text x="0" text-anchor="start" class="highcharts-caption" data-z-index="4" style="color:#666666;fill:#666666;" y="475"></text><g class="highcharts-axis-labels highcharts-xaxis-labels" data-z-index="7"><text x="45.5" style="color:#666666;cursor:default;font-size:11px;font-size:12px;font-weight:400;fill:#666666;" text-anchor="middle" transform="translate(0,0)" y="434" opacity="1">May</text><text x="154" style="color:#666666;cursor:default;font-size:11px;font-size:12px;font-weight:400;fill:#666666;" text-anchor="middle" transform="translate(0,0)" y="434" opacity="1">Jul</text><text x="274.4" style="color:#666666;cursor:default;font-size:11px;font-size:12px;font-weight:400;fill:#666666;" text-anchor="middle" transform="translate(0,0)" y="434" opacity="1">Sep</text><text x="391.06666666666" style="color:#666666;cursor:default;font-size:11px;font-size:12px;font-weight:400;fill:#666666;" text-anchor="middle" transform="translate(0,0)" y="434" opacity="1">Nov</text><text x="499.52" style="color:#666666;cursor:default;font-size:11px;font-size:12px;font-weight:400;fill:#666666;" text-anchor="middle" transform="translate(0,0)" y="434" opacity="1">2021</text><text x="602" style="color:#666666;cursor:default;font-size:11px;font-size:12px;font-weight:400;fill:#666666;" text-anchor="middle" transform="translate(0,0)" y="434" opacity="1">Mar</text></g><g class="highcharts-axis-labels highcharts-yaxis-labels" data-z-index="7"><text x="0" style="color:#666666;cursor:default;font-size:11px;font-size:1.1em;fill:#666666;" text-anchor="start" transform="translate(0,0)" y="-9999"><tspan style="font-size:0.9em;">0.000</tspan></text><text x="699" style="color:#666666;cursor:default;font-size:11px;font-size:1.1em;fill:#666666;" text-anchor="start" transform="translate(0,0)" y="385" opacity="1"><tspan style="font-size:0.9em;">250000</tspan></text><text x="699" style="color:#666666;cursor:default;font-size:11px;font-size:1.1em;fill:#666666;" text-anchor="start" transform="translate(0,0)" y="351" opacity="1"><tspan style="font-size:0.9em;">500000</tspan></text><text x="699" style="color:#666666;cursor:default;font-size:11px;font-size:1.1em;fill:#666666;" text-anchor="start" transform="translate(0,0)" y="317" opacity="1"><tspan style="font-size:0.9em;">750000</tspan></text><text x="699" style="color:#666666;cursor:default;font-size:11px;font-size:1.1em;fill:#666666;" text-anchor="start" transform="translate(0,0)" y="283" opacity="1"><tspan style="font-size:0.9em;">1000000</tspan></text><text x="699" style="color:#666666;cursor:default;font-size:11px;font-size:1.1em;fill:#666666;" text-anchor="start" transform="translate(0,0)" y="249" opacity="1"><tspan style="font-size:0.9em;">1250000</tspan></text><text x="699" style="color:#666666;cursor:default;font-size:11px;font-size:1.1em;fill:#666666;" text-anchor="start" transform="translate(0,0)" y="215" opacity="1"><tspan style="font-size:0.9em;">1500000</tspan></text><text x="699" style="color:#666666;cursor:default;font-size:11px;font-size:1.1em;fill:#666666;" text-anchor="start" transform="translate(0,0)" y="181" opacity="1"><tspan style="font-size:0.9em;">1750000</tspan></text><text x="699" style="color:#666666;cursor:default;font-size:11px;font-size:1.1em;fill:#666666;" text-anchor="start" transform="translate(0,0)" y="147" opacity="1"><tspan style="font-size:0.9em;">2000000</tspan></text><text x="699" style="color:#666666;cursor:default;font-size:11px;font-size:1.1em;fill:#666666;" text-anchor="start" transform="translate(0,0)" y="113" opacity="1"><tspan style="font-size:0.9em;">2250000</tspan></text><text x="699" style="color:#666666;cursor:default;font-size:11px;font-size:1.1em;fill:#666666;" text-anchor="start" transform="translate(0,0)" y="79" opacity="1"><tspan style="font-size:0.9em;">2500000</tspan></text><text x="0" style="color:#666666;cursor:default;font-size:11px;font-size:1.1em;fill:#666666;" text-anchor="start" transform="translate(0,0)" y="-9999"><tspan style="font-size:0.9em;">2750000</tspan></text></g><g class="highcharts-axis-labels highcharts-yaxis-labels" data-z-index="7"></g><path fill="none" d="M 0 0 L 1920 0" stroke="#524f4f" stroke-width="1" stroke-dasharray="8,3" data-z-index="10" class="crossHairLine" visibility="hidden"></path><path fill="none" d="M 0 41 L 0 509" stroke="#524f4f" stroke-width="1" stroke-dasharray="8,3" data-z-index="10" class="crossHairLine" visibility="hidden"></path></svg>