<?xml version="1.0" standalone="no"?><!DOCTYPE svg PUBLIC "-//W3C//DTD SVG 1.1//EN" "http://www.w3.org/Graphics/SVG/1.1/DTD/svg11.dtd"><svg xmlns:xlink="http://www.w3.org/1999/xlink" version="1.1" class="highcharts-root" style="font-family:'Helvetica Neue',Helvetica,Arial,sans-serif;font-size:12px;" xmlns="http://www.w3.org/2000/svg" width="746" height="468" viewBox="0 0 746 468"><desc>Created with Highcharts 7.2.0</desc><defs><clipPath id="highcharts-i0wia5o-561-"><rect x="0" y="0" width="686" height="371" fill="none"></rect></clipPath><clipPath id="highcharts-i0wia5o-836-"><rect x="0" y="0" width="686" height="371" fill="none"></rect></clipPath></defs><rect fill="#ffffff" class="highcharts-background" x="0" y="0" width="746" height="468" rx="0" ry="0"></rect><rect fill="none" class="highcharts-plot-background" x="0" y="40" width="686" height="371"></rect><g class="highcharts-grid highcharts-xaxis-grid" data-z-index="1"><path fill="none" stroke="#EDF3F6" stroke-width="1" data-z-index="1" class="highcharts-grid-line" d="M 66.5 40 L 66.5 411" opacity="1"></path><path fill="none" stroke="#EDF3F6" stroke-width="1" data-z-index="1" class="highcharts-grid-line" d="M 173.5 40 L 173.5 411" opacity="1"></path><path fill="none" stroke="#EDF3F6" stroke-width="1" data-z-index="1" class="highcharts-grid-line" d="M 288.5 40 L 288.5 411" opacity="1"></path><path fill="none" stroke="#EDF3F6" stroke-width="1" data-z-index="1" class="highcharts-grid-line" d="M 416.5 40 L 416.5 411" opacity="1"></path><path fill="none" stroke="#EDF3F6" stroke-width="1" data-z-index="1" class="highcharts-grid-line" d="M 534.5 40 L 534.5 411" opacity="1"></path><path fill="none" stroke="#EDF3F6" stroke-width="1" data-z-index="1" class="highcharts-grid-line" d="M 641.5 40 L 641.5 411" opacity="1"></path></g><g class="highcharts-grid highcharts-yaxis-grid" data-z-index="1"><path fill="none" stroke="#E7E7E7" stroke-width="1" data-z-index="1" class="highcharts-grid-line" d="M 0 411.5 L 686 411.5" opacity="1"></path><path fill="none" stroke="#E7E7E7" stroke-width="1" data-z-index="1" class="highcharts-grid-line" d="M 0 337.5 L 686 337.5" opacity="1"></path><path fill="none" stroke="#E7E7E7" stroke-width="1" data-z-index="1" class="highcharts-grid-line" d="M 0 263.5 L 686 263.5" opacity="1"></path><path fill="none" stroke="#E7E7E7" stroke-width="1" data-z-index="1" class="highcharts-grid-line" d="M 0 188.5 L 686 188.5" opacity="1"></path><path fill="none" stroke="#E7E7E7" stroke-width="1" data-z-index="1" class="highcharts-grid-line" d="M 0 114.5 L 686 114.5" opacity="1"></path><path fill="none" stroke="#E7E7E7" stroke-width="1" data-z-index="1" class="highcharts-grid-line" d="M 0 39.5 L 686 39.5" opacity="1"></path></g><g class="highcharts-grid highcharts-yaxis-grid" data-z-index="1"></g><g class="highcharts-grid highcharts-yaxis-grid" data-z-index="1"></g><rect fill="none" class="highcharts-plot-border" data-z-index="1" x="0" y="40" width="686" height="371"></rect><g class="highcharts-axis highcharts-xaxis" data-z-index="2"><path fill="none" class="highcharts-axis-line" stroke="#000000" stroke-width="1" data-z-index="7" d="M 0 411.5 L 686 411.5"></path></g><g class="highcharts-axis highcharts-yaxis" data-z-index="2"><path fill="none" class="highcharts-tick" stroke="#E7E7E7" stroke-width="1.5" d="M 687 411.75 L 697 411.75" opacity="1"></path><path fill="none" class="highcharts-tick" stroke="#E7E7E7" stroke-width="1.5" d="M 687 337.75 L 697 337.75" opacity="1"></path><path fill="none" class="highcharts-tick" stroke="#E7E7E7" stroke-width="1.5" d="M 687 263.75 L 697 263.75" opacity="1"></path><path fill="none" class="highcharts-tick" stroke="#E7E7E7" stroke-width="1.5" d="M 687 188.75 L 697 188.75" opacity="1"></path><path fill="none" class="highcharts-tick" stroke="#E7E7E7" stroke-width="1.5" d="M 687 114.75 L 697 114.75" opacity="1"></path><path fill="none" class="highcharts-tick" stroke="#E7E7E7" stroke-width="1.5" d="M 687 39.25 L 697 39.25" opacity="1"></path><path fill="none" class="highcharts-axis-line" stroke="#E6E6E6" stroke-width="1" data-z-index="7" d="M 687.5 40 L 687.5 411"></path></g><g class="highcharts-axis highcharts-yaxis" data-z-index="2"><path fill="none" class="highcharts-axis-line" data-z-index="7" d="M 733 40 L 733 411"></path></g><g class="highcharts-axis highcharts-yaxis" data-z-index="2"><path fill="none" class="highcharts-axis-line" stroke="#E6E6E6" stroke-width="1" data-z-index="7" d="M -1.5 40 L -1.5 411"></path></g><g class="highcharts-series-group" data-z-index="3"><g data-z-index="90" class="highcharts-series highcharts-series-0 highcharts-line-series " transform="translate(0,40) scale(1 1)" clip-path="url(#highcharts-i0wia5o-836-)"><path fill="none" d="M 0 274.80340999999993 L 2.4676258992793 266.75001653999993 L 4.9352517985638 269.6133055000001 L 7.402877697843 260.93980780000004 L 9.8705035971223 260.4282359 L 12.338129496402 288.44137 L 14.805755395686 281.84623656 L 17.273381294965 302.3371008 L 19.741007194245 278.33162000000004 L 22.208633093524 262.95596278 L 24.676258992808 266.94384920000005 L 27.143884892088 255.18191747999995 L 29.611510791367 251.98645738000005 L 32.079136690646 245.22918951999998 L 34.546762589931 245.81829300000007 L 37.01438848921 248.17914408000007 L 39.482014388489 242.31147486 L 41.949640287768 236.86893454000003 L 44.417266187053 239.38659247999996 L 46.884892086332 244.88145121999997 L 49.352517985611 249.49655766000006 L 51.820143884891 253.70639111999995 L 54.287769784175 280.198492 L 56.755395683454 282.35274059999995 L 59.223021582734 274.3775391 L 61.690647482013 309.5393609 L 64.158273381297 303.51929972 L 66.625899280577 275.80487997999995 L 69.093525179856 292.35176936000005 L 71.561151079135 320.2970549799999 L 74.02877697842 336.57098482000004 L 76.496402877699 321.3965060599999 L 78.964028776978 348.808264 L 81.431654676257 312.04875295999994 L 83.899280575542 315.19659892 L 86.366906474821 292.87486451999996 L 88.8345323741 301.4528594 L 91.30215827338 290.67559878 L 93.769784172664 285.50109111999996 L 96.237410071943 281.78355982000005 L 98.705035971223 312.44554488000006 L 101.1726618705 306.6693939400001 L 103.64028776979 290.38068346 L 106.10791366907 295.47998199999995 L 108.57553956834 311.72303722 L 111.04316546762 313.08610605999996 L 113.51079136691 298.34950375999995 L 115.97841726619 299.34185455999994 L 118.44604316547 304.47716235999997 L 120.91366906475 290.01489972 L 123.38129496403 272.35001667999995 L 125.84892086331 252.41629798000002 L 128.31654676259 253.87841639999996 L 130.78417266187 251.04085999999995 L 133.25179856115 240.51893642000002 L 135.71942446043 234.09694125999997 L 138.18705035971 236.00418548000002 L 140.65467625899 223.60213778 L 143.12230215828 237.14957378 L 145.58992805755 220.65630874000004 L 148.05755395683 219.49041156 L 150.52517985611 229.45081922000006 L 152.9928057554 236.74966545999996 L 155.46043165468 227.41169934 L 157.92805755396 240.23300672000005 L 160.39568345324 226.94497392 L 162.86330935252 220.658928 L 165.3309352518 225.54735014 L 167.79856115108 229.90007795999998 L 170.26618705036 224.81078158000005 L 172.73381294964 232.93160799999998 L 175.20143884892 237.46086503999996 L 177.6690647482 256.3856344 L 180.13669064748 259.44986438 L 182.60431654676 251.26105591999993 L 185.07194244604 243.40360982000004 L 187.53956834532 270.15618238 L 190.0071942446 270.73601827999994 L 192.47482014389 296.67877204 L 194.94244604317 288.70125550000006 L 197.41007194245 267.63085216 L 199.87769784172 273.58221156 L 202.34532374101 280.64831466 L 204.81294964029 279.14728576000005 L 207.28057553957 260.13838843999997 L 209.74820143885 266.24916654 L 212.21582733813 249.18200159999998 L 214.68345323741 247.99643400000002 L 217.15107913669 244.65660296 L 219.61870503597 247.98784906 L 222.08633093525 245.86083186000008 L 224.55395683453 248.22950361999995 L 227.02158273381 246.65609261999995 L 229.48920863309 257.49747687999997 L 231.95683453238 239.60846531999997 L 234.42446043166 239.57770199999996 L 236.89208633093 237.22544327999992 L 239.35971223021 236.63394313999993 L 241.8273381295 236.33127392 L 244.29496402878 225.54234906000002 L 246.76258992806 222.72629582000002 L 249.23021582734 221.14197000000001 L 251.69784172662 213.08776034000002 L 254.1654676259 220.34371156 L 256.63309352518 223.86053186000007 L 259.10071942446 210.44540187999996 L 261.56834532374 218.92079300000006 L 264.03597122302 219.013172 L 266.5035971223 212.41753400000002 L 268.97122302158 202.53513280000004 L 271.43884892086 202.25115455999995 L 273.90647482014 195.44584219999993 L 276.37410071942 196.98752528 L 278.8417266187 195.55039000000005 L 281.30935251799 183.64666949999992 L 283.77697841727 180.10216517999996 L 286.24460431655 181.43370644000004 L 288.71223021582 181.04401545999997 L 291.17985611511 168.60972044000005 L 293.64748201439 168.74638199999993 L 296.11510791367 170.28751599999995 L 298.58273381295 164.25228091999995 L 301.05035971223 162.45828815999997 L 303.51798561151 169.01753105999995 L 305.98561151079 161.30391423999995 L 308.45323741007 160.23193199999992 L 310.92086330935 157.46051747999994 L 313.38848920863 157.7089094 L 315.85611510791 155.78735199999997 L 318.32374100719 163.63389812000003 L 320.79136690648 172.04182659999995 L 323.25899280576 174.25499000000005 L 325.72661870503 181.85731423999997 L 328.19424460431 168.56689219999993 L 330.6618705036 160.07678722 L 333.12949640288 152.83975699999993 L 335.59712230216 140.10510780000004 L 338.06474820144 139.05442096000002 L 340.53237410072 151.59277406 L 343 147.05708388000005 L 345.46762589928 144.81151733999994 L 347.93525179856 151.37567969999995 L 350.40287769784 147.46879000000004 L 352.87050359712 151.0990992 L 355.3381294964 143.84249502000003 L 357.80575539569 142.21241747999994 L 360.27338129497 134.92240846000004 L 362.74100719424 140.28568091999995 L 365.20863309352 145.85716599999995 L 367.67625899281 138.52323799999996 L 370.14388489209 144.42428238000002 L 372.61151079137 146.34044544000005 L 375.07913669065 141.79743172000005 L 377.54676258993 138.25851465999997 L 380.01438848921 139.30901599999996 L 382.48201438849 137.95468050000005 L 384.94964028777 148.19022917999996 L 387.41726618705 158.94205403999996 L 389.88489208633 153.30205267999995 L 392.35251798561 141.53142472 L 394.82014388489 140.28400400000007 L 397.28776978418 125.18902312 L 399.75539568345 121.86014399999996 L 402.22302158273 121.02621761999995 L 404.69064748201 127.73391988000003 L 407.1582733813 116.27502096000003 L 409.62589928058 114.52918400000004 L 412.09352517986 103.50255202 L 414.56115107914 105.17763186000008 L 417.02877697842 103.02184732 L 419.4964028777 103.56479840000003 L 421.96402877698 99.95783252000007 L 424.43165467626 100.13957800000003 L 426.89928057554 96.35537800000003 L 429.36690647482 98.25833346000002 L 431.8345323741 102.33317485999999 L 434.30215827338 106.77032002000004 L 436.76978417266 115.69649840000002 L 439.23741007194 111.86169399999994 L 441.70503597122 116.15988482000003 L 444.1726618705 119.98857514 L 446.64028776979 111.03783656000002 L 449.10791366907 110.11968576000004 L 451.57553956834 123.65647406 L 454.04316546762 147.49590267999994 L 456.51079136691 146.33946599999996 L 458.97841726619 135.302958 L 461.44604316547 124.90968238000005 L 463.91366906475 123.93791465999999 L 466.38129496403 123.76263199999994 L 468.84892086331 133.20197016000003 L 471.31654676259 165.44360644000005 L 473.78417266187 166.73588105999994 L 476.25179856115 171.43047795999996 L 478.71942446043 163.84352795999996 L 481.18705035971 161.05258400000002 L 483.65467625899 187.56839920000002 L 486.12230215828 172.57847809999996 L 488.58992805755 165.70686062000001 L 491.05755395683 156.03282044000005 L 493.52517985611 161.70056517999996 L 495.9928057554 168.459228 L 498.46043165468 169.64141949999993 L 500.92805755396 173.47148252000005 L 503.39568345324 165.12463548000002 L 505.86330935252 144.51036922000006 L 508.3309352518 137.49846922000006 L 510.79856115108 126.07413266000003 L 513.26618705036 117.92473923999998 L 515.73381294964 119.55800738000005 L 518.20143884892 112.07242199999996 L 520.6690647482 122.05414732000003 L 523.13669064748 110.24678294000006 L 525.60431654676 106.88604233999996 L 528.07194244604 103.99926908000003 L 530.53956834532 90.66037218000002 L 533.0071942446 85.29499985999996 L 535.47482014389 81.22835013999997 L 537.94244604317 76.24093778000002 L 540.41007194245 63.47788482000004 L 542.87769784172 48.50868778 L 545.34532374101 47.534226599999954 L 547.81294964029 49.266774339999984 L 550.28057553957 57.880852679999975 L 552.74820143885 75.27053533999998 L 555.21582733813 71.79052565999996 L 557.68345323741 59.36854784000002 L 560.15107913669 60.16765215999999 L 562.61870503597 51.21524408000005 L 565.08633093525 51.34110954000005 L 567.55395683453 38.36328467999988 L 570.02158273381 31.657890040000098 L 572.48920863309 45.931469499999935 L 574.95683453238 51.44168764 L 577.42446043166 46.908164099999965 L 579.89208633093 44.014657190000094 L 582.35971223021 72.30174139999997 L 584.8273381295 44.576391999999885 L 587.29496402878 64.11445403999994 L 589.76258992806 83.27341343999996 L 592.23021582734 74.88548186000008 L 594.69784172662 95.56655780000006 L 597.1654676259 85.61498735999999 L 599.63309352518 50.03587218000001 L 602.10071942446 44.9402762200001 L 604.56834532374 63.101735340000005 L 607.03597122302 49.56708400000002 L 609.5035971223 68.07509422000004 L 611.97122302158 80.51460550000007 L 614.43884892086 52.71207326000001 L 616.90647482014 84.29576329999998 L 619.37410071942 88.93160122 L 621.8417266187 101.82891908000005 L 624.30935251799 75.21822434 L 626.77697841727 60.83385686000008 L 629.24460431655 51.33081800000008 L 631.71223021582 32.091499999999996 L 634.17985611511 37.94142799999997 L 636.64748201439 37.767058000000134 L 639.11510791367 42.36078000000009 L 641.58273381295 50.450064 L 644.05035971223 36.96884408000005 L 646.51798561151 53.44385591999992 L 648.98561151079 91.13426531999994 L 651.45323741007 91.61040672000007 L 653.92086330935 104.4597617 L 656.38848920863 102.80960563999992 L 658.85611510791 85.76607340000004 L 661.32374100719 81.24189905999998 L 663.79136690648 111.62520375999998 L 666.25899280576 103.01974003999993 L 668.72661870503 106.29077506599992 L 671.19424460431 132.76177124000003 L 673.6618705036 146.00556599999996" class="highcharts-graph" data-z-index="1" stroke="#428bca" stroke-width="2" stroke-linejoin="round" stroke-linecap="round"></path></g><g data-z-index="90" class="highcharts-markers highcharts-series-0 highcharts-line-series " transform="translate(0,40) scale(1 1)" clip-path="none"></g></g><text x="736" text-anchor="end" class="highcharts-title" data-z-index="4" style="color:#333;font-size:16px;fill:#333;font-size:12px;" y="464"><tspan>source: trandingeconomics.com</tspan></text><text x="14" text-anchor="start" class="highcharts-subtitle" data-z-index="4" style="color:#333;fill:#333;font-size:14px;" y="25"><tspan>United States Stock Market Index (US100)</tspan></text><text x="0" text-anchor="start" class="highcharts-caption" data-z-index="4" style="color:#666666;fill:#666666;" y="475"></text><g class="highcharts-axis-labels highcharts-xaxis-labels" data-z-index="7"><text x="66.625899280577" style="color:#666666;cursor:default;font-size:11px;font-size:12px;font-weight:400;fill:#666666;" text-anchor="middle" transform="translate(0,0)" y="431" opacity="1">Mar</text><text x="173.55635491607" style="color:#666666;cursor:default;font-size:11px;font-size:12px;font-weight:400;fill:#666666;" text-anchor="middle" transform="translate(0,0)" y="431" opacity="1">May</text><text x="288.71223021582" style="color:#666666;cursor:default;font-size:11px;font-size:12px;font-weight:400;fill:#666666;" text-anchor="middle" transform="translate(0,0)" y="431" opacity="1">Jul</text><text x="417.02877697842" style="color:#666666;cursor:default;font-size:11px;font-size:12px;font-weight:400;fill:#666666;" text-anchor="middle" transform="translate(0,0)" y="431" opacity="1">Sep</text><text x="535.47482014389" style="color:#666666;cursor:default;font-size:11px;font-size:12px;font-weight:400;fill:#666666;" text-anchor="middle" transform="translate(0,0)" y="431" opacity="1">Nov</text><text x="642.40527577938" style="color:#666666;cursor:default;font-size:11px;font-size:12px;font-weight:400;fill:#666666;" text-anchor="middle" transform="translate(0,0)" y="431" opacity="1">2022</text></g><g class="highcharts-axis-labels highcharts-yaxis-labels" data-z-index="7"><text x="0" style="color:unset;cursor:default;font-size:11px;font-size:1em;fill:unset;" text-anchor="start" transform="translate(0,0)" y="-9999">12000</text><text x="699" style="color:unset;cursor:default;font-size:11px;font-size:1em;fill:unset;" text-anchor="start" transform="translate(0,0)" y="341" opacity="1">13000</text><text x="699" style="color:unset;cursor:default;font-size:11px;font-size:1em;fill:unset;" text-anchor="start" transform="translate(0,0)" y="267" opacity="1">14000</text><text x="699" style="color:unset;cursor:default;font-size:11px;font-size:1em;fill:unset;" text-anchor="start" transform="translate(0,0)" y="193" opacity="1">15000</text><text x="699" style="color:unset;cursor:default;font-size:11px;font-size:1em;fill:unset;" text-anchor="start" transform="translate(0,0)" y="119" opacity="1">16000</text><text x="0" style="color:unset;cursor:default;font-size:11px;font-size:1em;fill:unset;" text-anchor="start" transform="translate(0,0)" y="-9999">17000</text></g><g class="highcharts-axis-labels highcharts-yaxis-labels" data-z-index="7"></g><g class="highcharts-axis-labels highcharts-yaxis-labels" data-z-index="7"></g><path fill="none" d="M 0 0 L 1920 0" stroke="#524f4f" stroke-width="1" stroke-dasharray="8,3" data-z-index="10" class="crossHairLine" visibility="hidden"></path><path fill="none" d="M 0 40 L 0 1000" stroke="#524f4f" stroke-width="1" stroke-dasharray="8,3" data-z-index="10" class="crossHairLine" visibility="hidden"></path></svg>