<?xml version="1.0" standalone="no"?><!DOCTYPE svg PUBLIC "-//W3C//DTD SVG 1.1//EN" "http://www.w3.org/Graphics/SVG/1.1/DTD/svg11.dtd"><svg xmlns:xlink="http://www.w3.org/1999/xlink" version="1.1" class="highcharts-root" style="font-family:'Helvetica Neue',Helvetica,Arial,sans-serif;font-size:12px;" xmlns="http://www.w3.org/2000/svg" width="746" height="468" viewBox="0 0 746 468"><desc>Created with Highcharts 7.2.0</desc><defs><clipPath id="highcharts-innecc7-2515-"><rect x="0" y="0" width="686" height="373" fill="none"></rect></clipPath><clipPath id="highcharts-innecc7-2816-"><rect x="0" y="0" width="686" height="373" fill="none"></rect></clipPath></defs><rect fill="#ffffff" class="highcharts-background" x="0" y="0" width="746" height="468" rx="0" ry="0"></rect><rect fill="none" class="highcharts-plot-background" x="0" y="41" width="686" height="373"></rect><g class="highcharts-grid highcharts-xaxis-grid" data-z-index="1"><path fill="none" stroke="#EDF3F6" stroke-width="1" data-z-index="1" class="highcharts-grid-line" d="M 96.5 41 L 96.5 414" opacity="1"></path><path fill="none" stroke="#EDF3F6" stroke-width="1" data-z-index="1" class="highcharts-grid-line" d="M 231.5 41 L 231.5 414" opacity="1"></path><path fill="none" stroke="#EDF3F6" stroke-width="1" data-z-index="1" class="highcharts-grid-line" d="M 367.5 41 L 367.5 414" opacity="1"></path><path fill="none" stroke="#EDF3F6" stroke-width="1" data-z-index="1" class="highcharts-grid-line" d="M 502.5 41 L 502.5 414" opacity="1"></path><path fill="none" stroke="#EDF3F6" stroke-width="1" data-z-index="1" class="highcharts-grid-line" d="M 638.5 41 L 638.5 414" opacity="1"></path></g><g class="highcharts-grid highcharts-yaxis-grid" data-z-index="1"><path fill="none" stroke="#E7E7E7" stroke-width="1" data-z-index="1" class="highcharts-grid-line" d="M 0 414.5 L 686 414.5" opacity="1"></path><path fill="none" stroke="#E7E7E7" stroke-width="1" data-z-index="1" class="highcharts-grid-line" d="M 0 377.5 L 686 377.5" opacity="1"></path><path fill="none" stroke="#E7E7E7" stroke-width="1" data-z-index="1" class="highcharts-grid-line" d="M 0 339.5 L 686 339.5" opacity="1"></path><path fill="none" stroke="#E7E7E7" stroke-width="1" data-z-index="1" class="highcharts-grid-line" d="M 0 302.5 L 686 302.5" opacity="1"></path><path fill="none" stroke="#E7E7E7" stroke-width="1" data-z-index="1" class="highcharts-grid-line" d="M 0 265.5 L 686 265.5" opacity="1"></path><path fill="none" stroke="#E7E7E7" stroke-width="1" data-z-index="1" class="highcharts-grid-line" d="M 0 228.5 L 686 228.5" opacity="1"></path><path fill="none" stroke="#E7E7E7" stroke-width="1" data-z-index="1" class="highcharts-grid-line" d="M 0 190.5 L 686 190.5" opacity="1"></path><path fill="none" stroke="#E7E7E7" stroke-width="1" data-z-index="1" class="highcharts-grid-line" d="M 0 153.5 L 686 153.5" opacity="1"></path><path fill="none" stroke="#E7E7E7" stroke-width="1" data-z-index="1" class="highcharts-grid-line" d="M 0 116.5 L 686 116.5" opacity="1"></path><path fill="none" stroke="#E7E7E7" stroke-width="1" data-z-index="1" class="highcharts-grid-line" d="M 0 78.5 L 686 78.5" opacity="1"></path><path fill="none" stroke="#E7E7E7" stroke-width="1" data-z-index="1" class="highcharts-grid-line" d="M 0 40.5 L 686 40.5" opacity="1"></path></g><g class="highcharts-grid highcharts-yaxis-grid" data-z-index="1"></g><rect fill="none" class="highcharts-plot-border" data-z-index="1" x="0" y="41" width="686" height="373"></rect><g class="highcharts-axis highcharts-xaxis" data-z-index="2"><path fill="none" class="highcharts-axis-line" stroke="#000000" stroke-width="1" data-z-index="7" d="M 0 414.5 L 686 414.5"></path></g><g class="highcharts-axis highcharts-yaxis" data-z-index="2"><path fill="none" class="highcharts-tick" stroke="#000000" stroke-width="1" d="M 687 414.5 L 697 414.5" opacity="1"></path><path fill="none" class="highcharts-tick" stroke="#000000" stroke-width="1" d="M 687 377.5 L 697 377.5" opacity="1"></path><path fill="none" class="highcharts-tick" stroke="#000000" stroke-width="1" d="M 687 339.5 L 697 339.5" opacity="1"></path><path fill="none" class="highcharts-tick" stroke="#000000" stroke-width="1" d="M 687 302.5 L 697 302.5" opacity="1"></path><path fill="none" class="highcharts-tick" stroke="#000000" stroke-width="1" d="M 687 265.5 L 697 265.5" opacity="1"></path><path fill="none" class="highcharts-tick" stroke="#000000" stroke-width="1" d="M 687 228.5 L 697 228.5" opacity="1"></path><path fill="none" class="highcharts-tick" stroke="#000000" stroke-width="1" d="M 687 190.5 L 697 190.5" opacity="1"></path><path fill="none" class="highcharts-tick" stroke="#000000" stroke-width="1" d="M 687 153.5 L 697 153.5" opacity="1"></path><path fill="none" class="highcharts-tick" stroke="#000000" stroke-width="1" d="M 687 116.5 L 697 116.5" opacity="1"></path><path fill="none" class="highcharts-tick" stroke="#000000" stroke-width="1" d="M 687 78.5 L 697 78.5" opacity="1"></path><path fill="none" class="highcharts-tick" stroke="#000000" stroke-width="1" d="M 687 40.5 L 697 40.5" opacity="1"></path><path fill="none" class="highcharts-axis-line" stroke="#000000" stroke-width="1" data-z-index="7" d="M 687.5 41 L 687.5 414"></path></g><g class="highcharts-axis highcharts-yaxis" data-z-index="2"><path fill="none" class="highcharts-axis-line" stroke="#000000" stroke-width="1" data-z-index="7" d="M -1.5 41 L -1.5 414"></path></g><g class="highcharts-series-group" data-z-index="3"><g data-z-index="90" class="highcharts-series highcharts-series-0 highcharts-line-series " transform="translate(0,41) scale(1 1)" clip-path="url(#highcharts-innecc7-2816-)"><path fill="none" d="M 0 290.757976 L 2.2565789473684 296.415267 L 4.5131578947369 292.747931 L 6.7697368421053 288.578537 L 9.0263157894737 288.87992099999997 L 11.282894736842 278.775724 L 13.539473684211 277.507151 L 15.796052631579 279.459433 L 18.052631578947 288.47931900000003 L 20.309210526316 286.424462 L 22.565789473684 283.55870300000004 L 24.822368421053 282.652313 L 27.078947368421 289.558035 L 29.335526315789 284.611309 L 31.592105263158 281.432603 L 33.848684210526 278.172956 L 36.105263157895 274.538071 L 38.361842105263 287.923176 L 40.618421052632 296.192959 L 42.875 298.0320355 L 45.131578947368 305.440002 L 47.388157894737 305.984582 L 49.644736842105 308.82908 L 51.901315789474 313.61616200000003 L 54.157894736842 317.044032 L 56.414473684211 324.374974 L 58.671052631579 329.44590900000003 L 60.927631578947 321.182094 L 63.184210526316 325.362678 L 65.440789473684 335.697389 L 67.697368421053 336.981255 L 69.953947368421 336.661221 L 72.210526315789 340.047688 L 74.467105263158 328.187034 L 76.723684210526 324.79348 L 78.980263157895 329.459337 L 81.236842105263 324.26009 L 83.493421052632 321.173515 L 85.75 314.900401 L 88.006578947368 309.84065599999997 L 90.263157894737 315.021253 L 92.519736842105 311.165925 L 94.776315789474 306.97862699999996 L 97.032894736842 299.50818300000003 L 99.289473684211 292.58642199999997 L 101.54605263158 293.952721 L 103.80263157895 295.012414 L 106.05921052632 282.103257 L 108.31578947368 272.966995 L 110.57236842105 283.513943 L 112.82894736842 263.977695 L 115.08552631579 265.981078 L 117.34210526316 265.655822 L 119.59868421053 252.3263313 L 121.85526315789 255.5834046 L 124.11184210526 263.79492500000003 L 126.36842105263 265.839711 L 128.625 271.501851 L 130.88157894737 264.047819 L 133.13815789474 268.21385599999996 L 135.39473684211 278.492617 L 137.65131578947 278.177059 L 139.90789473684 276.914081 L 142.16447368421 291.527848 L 144.42105263158 297.517109 L 146.67763157895 303.574256 L 148.93421052632 304.98904500000003 L 151.19078947368 308.274802 L 153.44736842105 303.818198 L 155.70394736842 289.462547 L 157.96052631579 288.124969 L 160.21710526316 293.440965 L 162.47368421053 289.447627 L 164.73026315789 288.748625 L 166.98684210526 281.39716799999997 L 169.24342105263 275.510855 L 171.5 281.870878 L 173.75657894737 282.149882 L 176.01315789474 271.217252 L 178.26973684211 258.71205399999997 L 180.52631578947 240.335836 L 182.78289473684 264.82962699999996 L 185.03947368421 273.757382 L 187.29605263158 260.66582800000003 L 189.55263157895 260.337588 L 191.80921052632 259.26968899999997 L 194.06578947368 253.0981429 L 196.32236842105 259.517734 L 198.57894736842 256.2145579 L 200.83552631579 252.2715376 L 203.09210526316 242.402629 L 205.34868421053 241.7448062 L 207.60526315789 229.2373329 L 209.86184210526 225.5987179 L 212.11842105263 220.5046196 L 214.375 211.7231179 L 216.63157894737 221.0562493 L 218.88815789474 206.3847046 L 221.14473684211 214.3027859 L 223.40131578947 189.579861 L 225.65789473684 180.4236062 L 227.91447368421 191.5438179 L 230.17105263158 213.3941579 L 232.42763157895 200.0802586 L 234.68421052632 186.9917632 L 236.94078947368 170.11116330000002 L 239.19736842105 191.8503493 L 241.45394736842 193.45133990000002 L 243.71052631579 180.8841493 L 245.96710526316 168.2771969 L 248.22368421053 131.6265899 L 250.48026315789 131.5766079 L 252.73684210526 160.3550126 L 254.99342105263 169.9724446 L 257.25 163.0786586 L 259.50657894737 152.36378599999998 L 261.76315789474 178.42645230000002 L 264.01973684211 166.5303633 L 266.27631578947 151.0915203 L 268.53289473684 153.08647349999998 L 270.78947368421 150.0965055 L 273.04605263158 144.8788696 L 275.30263157895 164.1418578 L 277.55921052632 190.4966204 L 279.81578947368 196.14175160000002 L 282.07236842105 184.3028062 L 284.32894736842 200.38899070000002 L 286.58552631579 205.19576709999998 L 288.84210526316 196.38244849999998 L 291.09868421053 189.46359690000003 L 293.35526315789 190.07102740000002 L 295.61184210526 193.4919969 L 297.86842105263 186.5081687 L 300.125 174.0967429 L 302.38157894737 183.9861665 L 304.63815789474 160.8437172 L 306.89473684211 136.8786164 L 309.15131578947 146.9876251 L 311.40789473684 131.80712190000003 L 313.66447368421 131.8780665 L 315.92105263158 100.53196710000003 L 318.17763157895 104.16912739999998 L 320.43421052632 79.78716180000004 L 322.69078947368 49.69743829999999 L 324.94736842105 16.462355000000002 L 327.20394736842 64.61423050000002 L 329.46052631579 89.1665079 L 331.71710526316 129.12122349999999 L 333.97368421053 208.4095351 L 336.23026315789 238.3717672 L 338.48684210526 261.2718784 L 340.74342105263 274.5933123 L 343 282.8723457 L 345.25657894737 277.13079400000004 L 347.51315789474 278.3541594 L 349.76973684211 252.4068993 L 352.02631578947 251.50517179999997 L 354.28289473684 250.7996796 L 356.53947368421 254.5725 L 358.79605263158 254.3036789 L 361.05263157895 245.1424632 L 363.30921052632 242.6248251 L 365.56578947368 241.17553360000002 L 367.82236842105 254.52688210000002 L 370.07894736842 245.8683585 L 372.33552631579 242.6860344 L 374.59210526316 238.0347617 L 376.84868421053 260.75508690000004 L 379.10526315789 260.1312071 L 381.36184210526 251.67649070000002 L 383.61842105263 260.4400884 L 385.875 247.7197813 L 388.13157894737 243.563032 L 390.38815789474 241.7580477 L 392.64473684211 225.910807 L 394.90131578947 220.2836171 L 397.15789473684 213.1664414 L 399.41447368421 204.5882993 L 401.67105263158 195.51291089999998 L 403.92763157895 210.3083289 L 406.18421052632 220.91872419999999 L 408.44078947368 216.3075117 L 410.69736842105 219.8858126 L 412.95394736842 243.0569829 L 415.21052631579 226.75718129999998 L 417.46710526316 224.15711019999998 L 419.72368421053 228.08002580000002 L 421.98026315789 224.01242349999998 L 424.23684210526 212.71693910000002 L 426.49342105263 217.36063990000002 L 428.75 218.35099219999998 L 431.00657894737 243.2621329 L 433.26315789474 241.2553929 L 435.51973684211 230.4812133 L 437.77631578947 219.0355218 L 440.03289473684 221.7557735 L 442.28947368421 229.4215203 L 444.54605263158 226.74990780000002 L 446.80263157895 227.94000160000002 L 449.05921052632 219.99379610000003 L 451.31578947368 228.3392235 L 453.57236842105 226.9387204 L 455.82894736842 235.6118656 L 458.08552631579 238.213093 L 460.34210526316 237.81036490000002 L 462.59868421053 229.3355438 L 464.85526315789 223.2260649 L 467.11184210526 229.5710187 L 469.36842105263 232.1786617 L 471.625 233.56719149999998 L 473.88157894737 230.1609555 L 476.13815789474 233.10881179999998 L 478.39473684211 225.1206438 L 480.65131578947 224.8618937 L 482.90789473684 223.4866054 L 485.16447368421 223.8142859 L 487.42105263158 219.8663047 L 489.67763157895 229.9539032 L 491.93421052632 232.9108234 L 494.19078947368 243.5963782 L 496.44736842105 253.5715172 L 498.70394736842 270.686846 L 500.96052631579 289.7166346 L 503.21710526316 298.7561404 L 505.47368421053 291.5445584 L 507.73026315789 299.6263867 L 509.98684210526 287.3883313 L 512.24342105263 289.8305861 L 514.5 289.9658359 L 516.75657894737 306.9354709 L 519.01315789474 306.6258436 L 521.26973684211 313.1848994 L 523.52631578947 312.9620692 L 525.78289473684 321.6893367 L 528.03947368421 329.33606050000003 L 530.29605263158 333.5225006 L 532.55263157895 335.0663103 L 534.80921052632 331.3569372 L 537.06578947368 323.3520215 L 539.32236842105 321.4233877 L 541.57894736842 321.3521447 L 543.83552631579 329.8626246 L 546.09210526316 328.4396296 L 548.34868421053 325.0468216 L 550.60526315789 326.3232276 L 552.86184210526 324.194442 L 555.11842105263 320.1342997 L 557.375 321.4082439 L 559.63157894737 321.20167649999996 L 561.88815789474 324.6895249 L 564.14473684211 326.4926442 L 566.40131578947 327.78016560000003 L 568.65789473684 329.3659751 L 570.91447368421 325.6553338 L 573.17105263158 326.3128955 L 575.42763157895 323.5231912 L 577.68421052632 320.2099814 L 579.94078947368 318.9648701 L 582.19736842105 314.9347916 L 584.45394736842 311.6740629 L 586.71052631579 314.96780210000003 L 588.96710526316 312.8499081 L 591.22368421053 307.9412654 L 593.48026315789 306.45985859999996 L 595.73684210526 305.0526042 L 597.99342105263 308.7684675 L 600.25 307.674645 L 602.50657894737 303.6427761 L 604.76315789474 309.87512119999997 L 607.01973684211 321.2039891 L 609.27631578947 328.1106063 L 611.53289473684 320.7227445 L 613.78947368421 317.3068478 L 616.04605263158 315.8104091 L 618.30263157895 313.1182443 L 620.55921052632 321.1002205 L 622.81578947368 317.1482855 L 625.07236842105 317.3455652 L 627.32894736842 322.5722277 L 629.58552631579 321.037743 L 631.84210526316 319.92672519999996 L 634.09868421053 319.9380271 L 636.35526315789 313.6235847 L 638.61184210526 324.0887338 L 640.86842105263 331.32120380000003 L 643.125 354.5610061 L 645.38157894737 359.9518259 L 647.63815789474 351.7082648 L 649.89473684211 348.725533 L 652.15131578947 346.3877928 L 654.40789473684 343.4573556 L 656.66447368421 345.889987 L 658.92105263158 348.1924414 L 661.17763157895 340.7143509 L 663.43421052632 336.5595785 L 665.69078947368 332.91376460000004 L 667.94736842105 324.7244377 L 670.20394736842 326.5677664 L 672.46052631579 319.6761065 L 674.71710526316 318.3448695" class="highcharts-graph" data-z-index="1" stroke="#428bca" stroke-width="3" stroke-linejoin="round" stroke-linecap="round"></path></g><g data-z-index="90" class="highcharts-markers highcharts-series-0 highcharts-line-series " transform="translate(0,41) scale(1 1)" clip-path="none"></g></g><text x="736" text-anchor="end" class="highcharts-title" data-z-index="4" style="color:#858585;font-size:16px;fill:#858585;font-size:0.8em;" y="467"><tspan>SOURCE: TRADINGECONOMICS.COM</tspan></text><text x="10" text-anchor="start" class="highcharts-subtitle" data-z-index="4" style="color:#000000;fill:#000000;font-size:1em;" y="25"><tspan>S&amp;P GSCI</tspan></text><text x="0" text-anchor="start" class="highcharts-caption" data-z-index="4" style="color:#666666;fill:#666666;" y="475"></text><g class="highcharts-axis-labels highcharts-xaxis-labels" data-z-index="7"><text x="96.893283160553" style="color:#666666;cursor:default;font-size:11px;font-size:12px;font-weight:400;fill:#666666;" text-anchor="middle" transform="translate(0,0)" y="434" opacity="1">2000</text><text x="232.28802000266" style="color:#666666;cursor:default;font-size:11px;font-size:12px;font-weight:400;fill:#666666;" text-anchor="middle" transform="translate(0,0)" y="434" opacity="1">2005</text><text x="367.81933538483" style="color:#666666;cursor:default;font-size:11px;font-size:12px;font-weight:400;fill:#666666;" text-anchor="middle" transform="translate(0,0)" y="434" opacity="1">2010</text><text x="503.21407222694" style="color:#666666;cursor:default;font-size:11px;font-size:12px;font-weight:400;fill:#666666;" text-anchor="middle" transform="translate(0,0)" y="434" opacity="1">2015</text><text x="638.60870796784" style="color:#666666;cursor:default;font-size:11px;font-size:12px;font-weight:400;fill:#666666;" text-anchor="middle" transform="translate(0,0)" y="434" opacity="1">2020</text></g><g class="highcharts-axis-labels highcharts-yaxis-labels" data-z-index="7"><text x="0" style="color:#666666;cursor:default;font-size:11px;font-size:1.1em;fill:#666666;" text-anchor="start" transform="translate(0,0)" y="-9999"><tspan style="font-size:0.9em;">1000</tspan></text><text x="699" style="color:#666666;cursor:default;font-size:11px;font-size:1.1em;fill:#666666;" text-anchor="start" transform="translate(0,0)" y="381" opacity="1"><tspan style="font-size:0.9em;">2000</tspan></text><text x="699" style="color:#666666;cursor:default;font-size:11px;font-size:1.1em;fill:#666666;" text-anchor="start" transform="translate(0,0)" y="344" opacity="1"><tspan style="font-size:0.9em;">3000</tspan></text><text x="699" style="color:#666666;cursor:default;font-size:11px;font-size:1.1em;fill:#666666;" text-anchor="start" transform="translate(0,0)" y="307" opacity="1"><tspan style="font-size:0.9em;">4000</tspan></text><text x="699" style="color:#666666;cursor:default;font-size:11px;font-size:1.1em;fill:#666666;" text-anchor="start" transform="translate(0,0)" y="269" opacity="1"><tspan style="font-size:0.9em;">5000</tspan></text><text x="699" style="color:#666666;cursor:default;font-size:11px;font-size:1.1em;fill:#666666;" text-anchor="start" transform="translate(0,0)" y="232" opacity="1"><tspan style="font-size:0.9em;">6000</tspan></text><text x="699" style="color:#666666;cursor:default;font-size:11px;font-size:1.1em;fill:#666666;" text-anchor="start" transform="translate(0,0)" y="195" opacity="1"><tspan style="font-size:0.9em;">7000</tspan></text><text x="699" style="color:#666666;cursor:default;font-size:11px;font-size:1.1em;fill:#666666;" text-anchor="start" transform="translate(0,0)" y="157" opacity="1"><tspan style="font-size:0.9em;">8000</tspan></text><text x="699" style="color:#666666;cursor:default;font-size:11px;font-size:1.1em;fill:#666666;" text-anchor="start" transform="translate(0,0)" y="120" opacity="1"><tspan style="font-size:0.9em;">9000</tspan></text><text x="699" style="color:#666666;cursor:default;font-size:11px;font-size:1.1em;fill:#666666;" text-anchor="start" transform="translate(0,0)" y="83" opacity="1"><tspan style="font-size:0.9em;">10000</tspan></text><text x="0" style="color:#666666;cursor:default;font-size:11px;font-size:1.1em;fill:#666666;" text-anchor="start" transform="translate(0,0)" y="-9999"><tspan style="font-size:0.9em;">11000</tspan></text></g><g class="highcharts-axis-labels highcharts-yaxis-labels" data-z-index="7"></g><path fill="none" d="M 0 0 L 1920 0" stroke="#524f4f" stroke-width="1" stroke-dasharray="8,3" data-z-index="10" class="crossHairLine" visibility="hidden"></path><path fill="none" d="M 0 41 L 0 509" stroke="#524f4f" stroke-width="1" stroke-dasharray="8,3" data-z-index="10" class="crossHairLine" visibility="hidden"></path></svg>