<?xml version="1.0" standalone="no"?><!DOCTYPE svg PUBLIC "-//W3C//DTD SVG 1.1//EN" "http://www.w3.org/Graphics/SVG/1.1/DTD/svg11.dtd"><svg xmlns:xlink="http://www.w3.org/1999/xlink" version="1.1" class="highcharts-root" style="font-family: &quot;Helvetica Neue&quot;, Helvetica, Arial, sans-serif; font-size: 12px;" xmlns="http://www.w3.org/2000/svg" width="750" height="520" viewBox="0 0 750 520"><desc>Created with Highcharts 10.1.0</desc><defs><clipPath id="highcharts-9up1lr9-528-"><rect x="0" y="0" width="687" height="419" fill="none"></rect></clipPath><clipPath id="highcharts-9up1lr9-786-"><rect x="0" y="0" width="687" height="419" fill="none"></rect></clipPath><clipPath id="highcharts-9up1lr9-1049-"><rect x="0" y="40" width="687" height="419" fill="none"></rect></clipPath></defs><rect fill="#ffffff" class="highcharts-background" x="0" y="0" width="750" height="520" rx="0" ry="0"></rect><rect fill="none" class="highcharts-plot-background" x="0" y="40" width="687" height="419"></rect><g class="highcharts-grid highcharts-xaxis-grid" data-z-index="1"><path fill="none" stroke="#EDF3F6" stroke-width="1" stroke-dasharray="none" data-z-index="1" class="highcharts-grid-line" d="M 112.5 40 L 112.5 459" opacity="1"></path><path fill="none" stroke="#EDF3F6" stroke-width="1" stroke-dasharray="none" data-z-index="1" class="highcharts-grid-line" d="M 225.5 40 L 225.5 459" opacity="1"></path><path fill="none" stroke="#EDF3F6" stroke-width="1" stroke-dasharray="none" data-z-index="1" class="highcharts-grid-line" d="M 339.5 40 L 339.5 459" opacity="1"></path><path fill="none" stroke="#EDF3F6" stroke-width="1" stroke-dasharray="none" data-z-index="1" class="highcharts-grid-line" d="M 450.5 40 L 450.5 459" opacity="1"></path><path fill="none" stroke="#EDF3F6" stroke-width="1" stroke-dasharray="none" data-z-index="1" class="highcharts-grid-line" d="M 560.5 40 L 560.5 459" opacity="1"></path><path fill="none" stroke="#EDF3F6" stroke-width="1" stroke-dasharray="none" data-z-index="1" class="highcharts-grid-line" d="M 670.5 40 L 670.5 459" opacity="1"></path></g><g class="highcharts-grid highcharts-yaxis-grid" data-z-index="1"><path fill="none" stroke="#E7E7E7" stroke-width="1" stroke-dasharray="none" data-z-index="1" class="highcharts-grid-line" d="M 0 459.5 L 687 459.5" opacity="1"></path><path fill="none" stroke="#E7E7E7" stroke-width="1" stroke-dasharray="none" data-z-index="1" class="highcharts-grid-line" d="M 0 399.5 L 687 399.5" opacity="1"></path><path fill="none" stroke="#E7E7E7" stroke-width="1" stroke-dasharray="none" data-z-index="1" class="highcharts-grid-line" d="M 0 339.5 L 687 339.5" opacity="1"></path><path fill="none" stroke="#E7E7E7" stroke-width="1" stroke-dasharray="none" data-z-index="1" class="highcharts-grid-line" d="M 0 279.5 L 687 279.5" opacity="1"></path><path fill="none" stroke="#E7E7E7" stroke-width="1" stroke-dasharray="none" data-z-index="1" class="highcharts-grid-line" d="M 0 220.5 L 687 220.5" opacity="1"></path><path fill="none" stroke="#E7E7E7" stroke-width="1" stroke-dasharray="none" data-z-index="1" class="highcharts-grid-line" d="M 0 160.5 L 687 160.5" opacity="1"></path><path fill="none" stroke="#E7E7E7" stroke-width="1" stroke-dasharray="none" data-z-index="1" class="highcharts-grid-line" d="M 0 100.5 L 687 100.5" opacity="1"></path><path fill="none" stroke="#E7E7E7" stroke-width="1" stroke-dasharray="none" data-z-index="1" class="highcharts-grid-line" d="M 0 39.5 L 687 39.5" opacity="1"></path></g><g class="highcharts-grid highcharts-yaxis-grid" data-z-index="1"></g><g class="highcharts-grid highcharts-yaxis-grid" data-z-index="1"></g><rect fill="none" class="highcharts-plot-border" data-z-index="1" x="0" y="40" width="687" height="419"></rect><g class="highcharts-axis highcharts-xaxis" data-z-index="2"><path fill="none" class="highcharts-axis-line" stroke="#E6E6E6" stroke-width="1" data-z-index="7" d="M 0 459.5 L 687 459.5"></path></g><g class="highcharts-axis highcharts-yaxis" data-z-index="2"><path fill="none" class="highcharts-axis-line" data-z-index="7" d="M 720 40 L 720 459"></path></g><g class="highcharts-axis highcharts-yaxis" data-z-index="2"><path fill="none" class="highcharts-axis-line" stroke="#E6E6E6" stroke-width="1" data-z-index="7" d="M -1.5 40 L -1.5 459"></path></g><g class="highcharts-series-group" data-z-index="3"><g class="highcharts-series highcharts-series-0 highcharts-line-series" data-z-index="90" opacity="1" transform="translate(0,40) scale(1 1)" clip-path="url(#highcharts-9up1lr9-786-)"><path fill="none" d="M 0 174.18428571429 L 2.6321839080462 142.34028571429002 L 5.2643678160923 139.22771428571002 L 7.8965517241385 129.71042857143 L 10.528735632185 178.97285714286 L 13.160919540231 198.30671428571 L 15.793103448277 166.40285714286 L 18.425287356323 165.086 L 21.057471264369 142.041 L 23.689655172415 126.23871428570999 L 26.321839080462 139.108 L 28.954022988508 155.20957142856997 L 31.586206896554 138.74885714286 L 34.2183908046 136.65385714285998 L 36.850574712646 134.43914285713998 L 39.482758620687 136.47428571428998 L 42.114942528733 133.18214285713998 L 44.747126436779 112.23214285713999 L 47.379310344826 106.36614285714 L 50.011494252872 76.37771428571 L 52.643678160918 108.28157142856998 L 55.275862068964 103.43314285714001 L 57.90804597701 93.97571428571001 L 60.540229885056 82.42328571428999 L 63.172413793103 83.44085714286001 L 65.804597701149 92.53914285714 L 68.436781609195 76.91642857143 L 71.068965517241 80.86700000000002 L 73.701149425287 87.75057142857003 L 76.333333333333 87.93014285714003 L 78.965517241379 98.88400000000001 L 81.597701149426 115.22500000000002 L 84.229885057472 103.55285714285998 L 86.862068965518 144.974 L 89.494252873564 118.63685714285998 L 92.12643678161 135.63628571429 L 94.758620689656 155.68842857143 L 97.390804597703 170.114 L 100.02298850575 152.935 L 102.65517241379 141.38257142856997 L 105.28735632184 126.35842857143001 L 107.91954022989 137.61157142857002 L 110.55172413793 161.01571428570998 L 113.18390804598 147.30842857143 L 115.81609195402 200.40171428571 L 118.44827586207 209.61971428571 L 121.08045977011 184.06071428571 L 123.71264367816 170.41328571429 L 126.34482758621 172.32871428571 L 128.97701149425 219.61585714286 L 131.6091954023 231.288 L 134.24137931034 238.53071428571 L 136.87356321839 229.01342857143 L 139.50574712644 201.35942857143 L 142.13793103448 194.835 L 144.77011494253 198.24685714286 L 147.40229885057 216.80257142857 L 150.03448275862 224.88328571429 L 152.66666666667 212.97171428571 L 155.29885057471 222.18971428571 L 157.93103448276 207.76414285714 L 160.56321839081 211.595 L 163.19540229885 199.025 L 165.8275862069 225.12271428571 L 168.45977011494 220.15457142857 L 171.09195402299 240.98485714286 L 173.72413793104 254.03371428571 L 176.35632183908 250.92114285714 L 178.98850574713 239.84757142857 L 181.62068965517 246.01285714286 L 184.25287356322 236.61528571429 L 186.88505747127 223.327 L 189.51724137931 234.221 L 192.14942528735 248.94585714286 L 194.7816091954 264.20942857143 L 197.41379310345 255.59 L 200.04597701149 241.40385714286 L 202.67816091954 238.77014285714 L 205.31034482758 239.60814285714 L 207.94252873563 219.975 L 210.57471264368 213.09142857143 L 213.20689655172 226.31985714286 L 215.83908045977 225.12271428571 L 218.47126436782 202.377 L 221.10344827586 232.42528571429 L 223.73563218391 245.23471428571 L 226.36781609195 262.05457142857 L 229 260.49828571429 L 231.63218390805 246.67727142857 L 234.26436781609 260.31871428571003 L 236.89655172414 289.529 L 239.52873563218 280.90957142856996 L 242.16091954023 264.86785714286 L 244.79310344828 258.22371428571 L 247.42528735632 261.875 L 250.05747126437 255.23085714286 L 252.68965517242 275.94142857143004 L 255.32183908046 274.92385714286 L 257.95402298851 271.69157142857 L 260.58620689655 279.65257142857 L 263.2183908046 284.74042857143 L 265.85057471265 281.149 L 268.48275862069 309.76071428571 L 271.11494252873 322.151142857143 L 273.74712643678 312.39442857143 L 276.37931034483 291.86342857143 L 279.01149425287 296.77171428571 L 281.64367816092 306.94742857143 L 284.27586206896 283.12428571429 L 286.90804597701 266.36428571428996 L 289.54022988506 258.34342857142997 L 292.1724137931 253.85414285714 L 294.80459770115 231.34785714286 L 297.43678160919 240.38628571429 L 300.06896551724 260.01942857143 L 302.70114942529 270.91342857143 L 305.33333333333 259.48071428571 L 307.96551724138 278.03642857143 L 310.59770114943 278.27585714286 L 313.22988505747 291.56414285714 L 315.86206896552 278.81457142857 L 318.49425287356 279.53285714286 L 321.12643678161 275.64214285714 L 323.75862068966 277.797 L 326.3908045977 273.48728571429 L 329.02298850575 259.30114285714 L 331.65517241379 252.41757142857 L 334.28735632184 259.72014285714 L 336.91954022989 266.96285714286 L 339.55172413793 256.24842857143 L 342.18390804598 246.25228571429 L 344.81609195402 256.30828571429004 L 347.44827586207 230.74928571429 L 350.08045977011 235.059 L 352.71264367816 257.685 L 355.34482758621 275.34285714286 L 357.97701149425 271.21271428571004 L 360.6091954023 256.36814285714 L 363.24137931034 273.188 L 365.87356321839 266.24457142857 L 368.50574712644 273.78657142857 L 371.13793103448 292.76128571429 L 373.77011494253 300.30328571429 L 376.40229885057 299.82442857143 L 379.03448275862 294.91614285714 L 381.66666666667 310.83814285714 L 384.29885057471 310.75015285714 L 386.93103448276 320.654714285714 L 389.56321839081 315.26757142857 L 392.19540229885 309.58114285714 L 394.8275862069 295.33514285714 L 397.45977011494 292.462 L 400.09195402299 298.98642857143 L 402.72413793104 316.764 L 405.35632183908 332.446571428571 L 407.98850574713 344.058857142857 L 410.62068965517 348.847428571429 L 413.25287356322 350.58328571428603 L 415.88505747127 338.43228571428597 L 418.51724137931 325.742571428571 L 421.14942528735 315.26757142857 L 423.7816091954 322.510285714286 L 426.41379310345 331.967714285714 L 429.04597701149 326.58057142857103 L 431.67816091954 321.851857142857 L 434.31034482758 309.82057142857 L 436.94252873563 314.72885714285997 L 439.57471264368 301.44057142857 L 442.20689655172 301.44057142857 L 444.83908045977 304.79257142857 L 447.47126436782 308.26428571429 L 450.10344827586 296.59214285714 L 452.73563218391 316.52457142856997 L 455.36781609195 340.587142857143 L 458 335.678857142857 L 460.63218390805 334.96057142857103 L 463.26436781609 328.196714285714 L 465.89655172414 325.622857142857 L 468.52873563218 311.85571428571 L 471.16091954023 305.98971428570997 L 473.79310344828 297.49 L 476.42528735632 306.39614428570997 L 479.05747126437 295.395 L 481.68965517242 299.10614285714 L 484.32183908046 294.19785714286 L 486.95402298851 287.97271428571 L 489.58620689655 287.73328571429 L 492.2183908046 296.652 L 494.85057471265 296.652 L 497.48275862069 291.624 L 500.11494252873 299.52514285714 L 502.74712643678 310.17971428571 L 505.37931034483 304.25385714286 L 508.01149425287 318.859 L 510.64367816092 322.031428571429 L 513.27586206896 336.756285714286 L 515.90804597701 332.386714285714 L 518.54022988506 313.89085714286 L 521.1724137931 306.22914285714 L 523.80459770115 308.92271428571 L 526.43678160919 299.04628571429 L 529.06896551724 296.59214285714 L 531.70114942529 302.87714285714003 L 534.33333333333 305.15171428571 L 536.96551724138 305.87 L 539.59770114943 319.038571428571 L 542.22988505747 315.83262285714 L 544.86206896552 320.056142857143 L 547.49425287356 334.062714285714 L 550.12643678161 325.622857142857 L 552.75862068966 320.41528571428603 L 555.3908045977 324.365857142857 L 558.02298850575 316.10557142857 L 560.65517241379 312.27471428571 L 563.28735632184 309.40157142857 L 565.91954022989 300.54271428571 L 568.55172413793 295.93371428571 L 571.18390804598 312.93314285714 L 573.81609195402 318.38014285714 L 576.44827586207 323.94685714285697 L 579.08045977011 318.44 L 581.71264367816 329.513571428571 L 584.34482758621 349.745285714286 L 586.97701149425 372.191714285714 L 589.6091954023 367.343285714286 L 592.24137931034 376.381714285714 L 594.87356321839 371.174142857143 L 597.50574712644 360.519571428571 L 600.13793103448 353.037428571429 L 602.77011494253 358.42457142857097 L 605.40229885057 362.674428571429 L 608.03448275862 341.604714285714 L 610.66666666667 339.15057142857097 L 613.29885057471 340.46742857142897 L 615.93103448276 332.267 L 618.56321839081 324.425714285714 L 621.19540229885 296.652 L 623.8275862069 294.976 L 626.45977011494 295.51471428571 L 629.09195402299 295.21542857143 L 631.72413793104 300.66242857143 L 634.35632183908 290.36699999999996 L 636.98850574713 280.78985714286 L 639.62068965517 287.07485714285997 L 642.25287356322 284.74042857143 L 644.88505747127 294.31757142857 L 647.51724137931 293.89857142857 L 650.14942528735 303.83485714286 L 652.7816091954 315.02814285714 L 655.41379310345 312.03528571429 L 658.04597701149 306.70799999999997 L 660.67816091954 316.82385714286 L 663.31034482758 333.404285714286 L 665.94252873563 330.65085714285703 L 668.57471264368 318.55971428571 L 671.20689655172 325.263714285714 L 673.83908045977 348.936615714286" class="highcharts-graph" data-z-index="1" stroke="#2962FF" stroke-width="2" stroke-linejoin="round" stroke-linecap="round"></path></g><g class="highcharts-markers highcharts-series-0 highcharts-line-series" data-z-index="90" opacity="1" transform="translate(0,40) scale(1 1)" clip-path="none"></g></g><text x="740" text-anchor="end" class="highcharts-title" data-z-index="4" style="color: rgb(51, 51, 51); font-size: 15px; fill: rgb(51, 51, 51);" y="514">source: tradingeconomics.com</text><text x="14" text-anchor="start" class="highcharts-subtitle" data-z-index="4" style="color: rgb(51, 51, 51); fill: rgb(51, 51, 51); font-size: 15px;" y="25">Crude Oil WTI</text><text x="0" text-anchor="start" class="highcharts-caption" data-z-index="4" style="color: rgb(102, 102, 102); fill: rgb(102, 102, 102);" y="527"></text><g class="highcharts-axis-labels highcharts-xaxis-labels" data-z-index="7"><text x="113.18390804598" style="color: black; cursor: default; font-size: 15px; font-weight: 400; fill: black;" text-anchor="middle" transform="translate(0,0)" y="479" opacity="1">Jul</text><text x="226.36781609195" style="color: black; cursor: default; font-size: 15px; font-weight: 400; fill: black;" text-anchor="middle" transform="translate(0,0)" y="479" opacity="1">Sep</text><text x="339.55172413793" style="color: black; cursor: default; font-size: 15px; font-weight: 400; fill: black;" text-anchor="middle" transform="translate(0,0)" y="479" opacity="1">Nov</text><text x="451.41954022989" style="color: black; cursor: default; font-size: 15px; font-weight: 400; fill: black;" text-anchor="middle" transform="translate(0,0)" y="479" opacity="1">2023</text><text x="560.65517241379" style="color: black; cursor: default; font-size: 15px; font-weight: 400; fill: black;" text-anchor="middle" transform="translate(0,0)" y="479" opacity="1">Mar</text><text x="671.20689655172" style="color: black; cursor: default; font-size: 15px; font-weight: 400; fill: black;" text-anchor="middle" transform="translate(0,0)" y="479" opacity="1">May</text></g><g class="highcharts-axis-labels highcharts-yaxis-labels" data-z-index="7"><text x="0" style="color: unset; cursor: default; font-size: 15px; fill: unset;" text-anchor="start" transform="translate(0,0)" visibility="hidden">60</text><text x="695" style="color: unset; cursor: default; font-size: 15px; fill: unset;" text-anchor="start" transform="translate(0,0)" y="404" opacity="1">70</text><text x="695" style="color: unset; cursor: default; font-size: 15px; fill: unset;" text-anchor="start" transform="translate(0,0)" y="344" opacity="1">80</text><text x="695" style="color: unset; cursor: default; font-size: 15px; fill: unset;" text-anchor="start" transform="translate(0,0)" y="284" opacity="1">90</text><text x="695" style="color: unset; cursor: default; font-size: 15px; fill: unset;" text-anchor="start" transform="translate(0,0)" y="224" opacity="1">100</text><text x="695" style="color: unset; cursor: default; font-size: 15px; fill: unset;" text-anchor="start" transform="translate(0,0)" y="164" opacity="1">110</text><text x="695" style="color: unset; cursor: default; font-size: 15px; fill: unset;" text-anchor="start" transform="translate(0,0)" y="104" opacity="1">120</text><text x="0" style="color: unset; cursor: default; font-size: 15px; fill: unset;" text-anchor="start" transform="translate(0,0)" visibility="hidden">130</text></g><g class="highcharts-axis-labels highcharts-yaxis-labels" data-z-index="7"></g><g class="highcharts-axis-labels highcharts-yaxis-labels" data-z-index="7"></g><g class="highcharts-control-points" data-z-index="99" clip-path="url(#highcharts-9up1lr9-1049-)"></g><g class="highcharts-axis highcharts-yaxis" data-z-index="9999"><path fill="none" class="highcharts-tick" stroke="#E7E7E7" stroke-width="1" d="M 688 459.5 L 693 459.5" opacity="1"></path><path fill="none" class="highcharts-tick" stroke="#E7E7E7" stroke-width="1" d="M 688 399.5 L 693 399.5" opacity="1"></path><path fill="none" class="highcharts-tick" stroke="#E7E7E7" stroke-width="1" d="M 688 339.5 L 693 339.5" opacity="1"></path><path fill="none" class="highcharts-tick" stroke="#E7E7E7" stroke-width="1" d="M 688 279.5 L 693 279.5" opacity="1"></path><path fill="none" class="highcharts-tick" stroke="#E7E7E7" stroke-width="1" d="M 688 220.5 L 693 220.5" opacity="1"></path><path fill="none" class="highcharts-tick" stroke="#E7E7E7" stroke-width="1" d="M 688 160.5 L 693 160.5" opacity="1"></path><path fill="none" class="highcharts-tick" stroke="#E7E7E7" stroke-width="1" d="M 688 100.5 L 693 100.5" opacity="1"></path><path fill="none" class="highcharts-tick" stroke="#E7E7E7" stroke-width="1" d="M 688 39.5 L 693 39.5" opacity="1"></path><path fill="none" class="highcharts-axis-line" stroke="#E6E6E6" stroke-width="1" data-z-index="7" d="M 688.5 40 L 688.5 459"></path></g><path fill="none" d="M 0 0 L 1536 0" stroke="#524f4f" stroke-width="1" stroke-dasharray="8,3" data-z-index="6" visibility="hidden" class="crosshair-fix-horizontal"></path><path fill="none" d="M 0 40 L 0 904" stroke="#524f4f" stroke-width="1" stroke-dasharray="8,3" data-z-index="6" visibility="hidden" class="crosshair-fix-vertical"></path></svg>